<?xml version="1.0" encoding="utf-8"?>
<!-- Generator: Adobe Illustrator 18.0.0, SVG Export Plug-In . SVG Version: 6.00 Build 0)  -->
<!DOCTYPE svg PUBLIC "-//W3C//DTD SVG 1.1//EN" "http://www.w3.org/Graphics/SVG/1.1/DTD/svg11.dtd">
<svg version="1.1" id="Layer_1" xmlns="http://www.w3.org/2000/svg" xmlns:xlink="http://www.w3.org/1999/xlink" x="0px" y="0px"
	 viewBox="0 203.2 1280 393.5" enable-background="new 0 203.2 1280 393.5" xml:space="preserve">
<g>
	<path fill="#3A3B73" stroke="#3A3B73" stroke-linecap="round" stroke-linejoin="bevel" stroke-miterlimit="10" d="M407.5,216.1
		l83.6,42.9h94.3l-83.6-42.9C501.8,216.1,411.6,216.1,407.5,216.1z"/>
	<polygon fill="#FFFFFF" stroke="#3A3B73" stroke-linejoin="bevel" stroke-miterlimit="10" points="406.3,221.5 489.9,264.3 
		489.9,259 406.3,216.1 	"/>
	
		<rect x="490" y="259" fill="#FFFFFF" stroke="#3A3B73" stroke-linejoin="bevel" stroke-miterlimit="10" width="94.3" height="5.4"/>
	<path fill="#3A3B73" stroke="#3A3B73" stroke-linecap="round" stroke-linejoin="bevel" stroke-miterlimit="10" d="M439,203.2
		l53.8,27.7h60.8l-53.9-27.7C499.7,203.2,441.6,203.2,439,203.2z"/>
	<polygon fill="#FFFFFF" stroke="#3A3B73" stroke-linejoin="bevel" stroke-miterlimit="10" points="438.2,217.4 492.1,245 
		492.1,230.9 438.2,203.2 	"/>
	
		<rect x="492.1" y="230.9" fill="#FFFFFF" stroke="#3A3B73" stroke-linejoin="bevel" stroke-miterlimit="10" width="61.5" height="14.2"/>
	<g>
		<path fill="#3A3B73" stroke="#3A3B73" stroke-linecap="round" stroke-linejoin="bevel" stroke-miterlimit="10" d="M726,550.6
			l23.9,12.4h70.4l-23.9-12.4C796.4,550.6,730.1,550.6,726,550.6z"/>
		<polygon fill="#FFFFFF" stroke="#3A3B73" stroke-linejoin="bevel" stroke-miterlimit="10" points="726,555.9 749.9,568.4 
			749.9,563 726,550.6 		"/>
		
			<rect x="749.9" y="563" fill="none" stroke="#3A3B73" stroke-linecap="round" stroke-linejoin="bevel" stroke-miterlimit="10" width="70.4" height="5.4"/>
	</g>
	<g>
		<path fill="#3A3B73" stroke="#3A3B73" stroke-linecap="round" stroke-linejoin="bevel" stroke-miterlimit="10" d="M627.4,500.7
			l83.6,42.9h8.6l-83.6-42.9C635.9,500.7,631.4,500.7,627.4,500.7z"/>
		<polygon fill="#FFFFFF" stroke="#3A3B73" stroke-linejoin="bevel" stroke-miterlimit="10" points="627.4,518.9 711,561.8 
			711,543.6 627.4,500.7 		"/>
		
			<rect x="711" y="543.6" fill="#FFFFFF" stroke="#3A3B73" stroke-linejoin="bevel" stroke-miterlimit="10" width="8.6" height="18.2"/>
	</g>
	<g>
		<path fill="#3A3B73" stroke="#3A3B73" stroke-linecap="round" stroke-linejoin="bevel" stroke-miterlimit="10" d="M605.9,500.7
			l83.6,42.9h8.6l-83.6-42.9C614.5,500.7,610,500.7,605.9,500.7z"/>
		<polygon fill="#FFFFFF" stroke="#3A3B73" stroke-linejoin="bevel" stroke-miterlimit="10" points="605.9,518.9 689.5,561.8 
			689.5,543.6 605.9,500.7 		"/>
		
			<rect x="689.5" y="543.6" fill="#FFFFFF" stroke="#3A3B73" stroke-linejoin="bevel" stroke-miterlimit="10" width="8.6" height="18.2"/>
	</g>
	<g>
		<path fill="#3A3B73" stroke="#3A3B73" stroke-linecap="round" stroke-linejoin="bevel" stroke-miterlimit="10" d="M584.5,500.7
			l83.6,42.9h8.6L593,500.7C593,500.7,588.5,500.7,584.5,500.7z"/>
		<polygon fill="#FFFFFF" stroke="#3A3B73" stroke-linejoin="bevel" stroke-miterlimit="10" points="584.5,518.9 668.1,561.8 
			668.1,543.6 584.5,500.7 		"/>
		
			<rect x="668.1" y="543.6" fill="#FFFFFF" stroke="#3A3B73" stroke-linejoin="bevel" stroke-miterlimit="10" width="8.6" height="18.2"/>
	</g>
	<g>
		<polygon fill="#FFFFFF" stroke="#3A3B73" stroke-linecap="round" stroke-linejoin="bevel" stroke-miterlimit="10" points="
			785.7,338.8 740.6,314.2 740.6,298.4 785.7,323.2 		"/>
		<polygon fill="#FFFFFF" stroke="#3A3B73" stroke-linecap="round" stroke-linejoin="bevel" stroke-miterlimit="10" points="
			785.7,338.8 794.1,338.8 794.1,323.2 785.7,323.2 		"/>
		<polygon fill="#3A3B73" stroke="#3A3B73" stroke-linejoin="bevel" stroke-miterlimit="10" points="785.7,323.2 794.1,323.2 
			749.2,298.4 740.6,298.4 		"/>
	</g>
	<g>
		<path fill="#3A3B73" stroke="#3A3B73" stroke-linecap="round" stroke-linejoin="bevel" stroke-miterlimit="10" d="M862.7,496.6
			l26.3,13.7h34.3L897,496.6C897,496.6,866.8,496.6,862.7,496.6z"/>
		<polygon fill="#FFFFFF" stroke="#3A3B73" stroke-linejoin="bevel" stroke-miterlimit="10" points="862.7,502 888.9,515.7 
			888.9,510.4 862.7,496.6 		"/>
		
			<rect x="888.9" y="510.4" fill="#FFFFFF" stroke="#3A3B73" stroke-linejoin="bevel" stroke-miterlimit="10" width="34.3" height="5.4"/>
	</g>
	<g>
		<path fill="#3A3B73" stroke="#3A3B73" stroke-linecap="round" stroke-linejoin="bevel" stroke-miterlimit="10" d="M862.7,485.9
			l26.3,13.7h34.3L897,485.9C897,485.9,866.8,485.9,862.7,485.9z"/>
		<polygon fill="#FFFFFF" stroke="#3A3B73" stroke-linejoin="bevel" stroke-miterlimit="10" points="862.7,491.3 888.9,505 
			888.9,499.6 862.7,485.9 		"/>
		
			<rect x="888.9" y="499.6" fill="#FFFFFF" stroke="#3A3B73" stroke-linejoin="bevel" stroke-miterlimit="10" width="34.3" height="5.4"/>
	</g>
	<g>
		<path fill="#3A3B73" stroke="#3A3B73" stroke-linecap="round" stroke-linejoin="bevel" stroke-miterlimit="10" d="M862.7,475.2
			l26.3,13.7h34.3L897,475.2C897,475.2,866.8,475.2,862.7,475.2z"/>
		<polygon fill="#FFFFFF" stroke="#3A3B73" stroke-linejoin="bevel" stroke-miterlimit="10" points="862.7,480.6 888.9,494.3 
			888.9,488.9 862.7,475.2 		"/>
		
			<rect x="888.9" y="488.9" fill="#FFFFFF" stroke="#3A3B73" stroke-linejoin="bevel" stroke-miterlimit="10" width="34.3" height="5.4"/>
	</g>
	<g>
		<path fill="#3A3B73" stroke="#3A3B73" stroke-linecap="round" stroke-linejoin="bevel" stroke-miterlimit="10" d="M862.7,464.5
			l26.3,13.7h34.3L897,464.5C897,464.5,866.8,464.5,862.7,464.5z"/>
		<polygon fill="#FFFFFF" stroke="#3A3B73" stroke-linejoin="bevel" stroke-miterlimit="10" points="862.7,469.8 888.9,483.6 
			888.9,478.2 862.7,464.5 		"/>
		
			<rect x="888.9" y="478.2" fill="#FFFFFF" stroke="#3A3B73" stroke-linejoin="bevel" stroke-miterlimit="10" width="34.3" height="5.4"/>
	</g>
	<g>
		<polygon fill="#FFFFFF" stroke="#3A3B73" stroke-linecap="round" stroke-linejoin="bevel" stroke-miterlimit="10" points="
			611.8,361.5 585.3,347.4 585.3,296 611.8,310 		"/>
		<polygon fill="#FFFFFF" stroke="#3A3B73" stroke-linejoin="bevel" stroke-miterlimit="10" points="611.8,361.5 663.4,361.5 
			663.4,310 611.8,310 		"/>
		<polygon fill="#3A3B73" stroke="#3A3B73" stroke-linejoin="bevel" stroke-miterlimit="10" points="611.8,310 663.4,310 637.2,296 
			585.3,296 		"/>
	</g>
	<g>
		<polygon fill="none" stroke="#3A3B73" stroke-linecap="round" stroke-linejoin="bevel" stroke-miterlimit="10" points="
			579.3,398.9 533.7,374.8 533.7,296 579.3,320.2 		"/>
		<polygon fill="#FFFFFF" stroke="#3A3B73" stroke-linejoin="bevel" stroke-miterlimit="10" points="579.3,398.9 630.9,398.9 
			630.9,320.2 579.3,320.2 		"/>
		<polygon fill="#3A3B73" stroke="#3A3B73" stroke-linejoin="bevel" stroke-miterlimit="10" points="579.3,320.2 630.9,320.2 
			585.6,296 533.8,296 		"/>
	</g>
	<g>
		<polygon fill="#FFFFFF" stroke="#3A3B73" stroke-linecap="round" stroke-linejoin="bevel" stroke-miterlimit="10" points="
			644.9,308.6 621.5,296 621.5,274.5 644.9,287.3 		"/>
		<polygon fill="#FFFFFF" stroke="#3A3B73" stroke-linecap="round" stroke-linejoin="bevel" stroke-miterlimit="10" points="
			644.9,308.6 784.3,308.6 784.3,287.3 644.9,287.3 		"/>
		<polygon fill="#3A3B73" stroke="#3A3B73" stroke-linejoin="bevel" stroke-miterlimit="10" points="644.9,287.3 784.3,287.3 
			761.2,274.5 621.6,274.5 		"/>
	</g>
	<g>
		<polygon fill="#FFFFFF" stroke="#3A3B73" stroke-linecap="round" stroke-linejoin="bevel" stroke-miterlimit="10" points="
			766.8,433.1 724.3,410.1 724.3,315.8 766.8,338.7 		"/>
		<polygon fill="#FFFFFF" stroke="#3A3B73" stroke-linecap="round" stroke-linejoin="bevel" stroke-miterlimit="10" points="
			766.8,433.1 785.7,433.1 785.7,338.8 766.8,338.7 		"/>
		<polygon fill="#3A3B73" stroke="#3A3B73" stroke-linejoin="bevel" stroke-miterlimit="10" points="766.8,338.7 785.7,338.8 
			743.5,315.8 724.3,315.8 		"/>
	</g>
	<g>
		<polygon fill="#FFFFFF" stroke="#3A3B73" stroke-linecap="round" stroke-linejoin="bevel" stroke-miterlimit="10" points="
			717.8,411.3 702.9,403.3 702.9,308.9 717.8,317 		"/>
		<polygon fill="#FFFFFF" stroke="#3A3B73" stroke-linecap="round" stroke-linejoin="bevel" stroke-miterlimit="10" points="
			717.8,411.3 757.1,411.3 757.1,317 717.8,317 		"/>
		<polygon fill="#3A3B73" stroke="#3A3B73" stroke-linejoin="bevel" stroke-miterlimit="10" points="717.8,317 757.1,317 
			742.5,308.9 702.9,308.9 		"/>
	</g>
	<g>
		<polygon fill="#FFFFFF" stroke="#3A3B73" stroke-linecap="round" stroke-linejoin="bevel" stroke-miterlimit="10" points="
			682.2,371.6 663.4,361.5 663.4,340 682.2,350.1 		"/>
		<polygon fill="#FFFFFF" stroke="#3A3B73" stroke-linecap="round" stroke-linejoin="bevel" stroke-miterlimit="10" points="
			682.2,371.6 721.5,371.6 721.5,350.1 682.2,350.1 		"/>
		<polygon fill="#3A3B73" stroke="#3A3B73" stroke-linejoin="bevel" stroke-miterlimit="10" points="682.2,350.1 721.5,350.1 
			702.9,340 663.4,340 		"/>
	</g>
	<g>
		<polygon fill="#FFFFFF" stroke="#3A3B73" stroke-linecap="round" stroke-linejoin="bevel" stroke-miterlimit="10" points="
			487.2,352.3 482.1,349.7 482.1,317.5 487.2,320.2 		"/>
		<polygon fill="#FFFFFF" stroke="#3A3B73" stroke-linecap="round" stroke-linejoin="bevel" stroke-miterlimit="10" points="
			487.2,352.3 538.9,352.3 538.9,320.2 487.2,320.2 		"/>
		<polygon fill="#3A3B73" stroke="#3A3B73" stroke-linejoin="bevel" stroke-miterlimit="10" points="487.2,320.2 538.9,320.2 
			534.1,317.5 482.2,317.5 		"/>
	</g>
	<g>
		<polygon fill="#FFFFFF" stroke="#3A3B73" stroke-linecap="round" stroke-linejoin="bevel" stroke-miterlimit="10" points="
			540.8,405 482.1,373.8 482.1,363.1 540.8,394.3 		"/>
		<polygon fill="#FFFFFF" stroke="#3A3B73" stroke-linecap="round" stroke-linejoin="bevel" stroke-miterlimit="10" points="
			540.8,405 592.4,405 592.4,394.4 540.8,394.3 		"/>
		<polygon fill="#3A3B73" stroke="#3A3B73" stroke-linejoin="bevel" stroke-miterlimit="10" points="540.8,394.3 592.4,394.4 
			534.1,363.1 482.2,363.1 		"/>
	</g>
	<g>
		<polygon fill="#FFFFFF" stroke="#3A3B73" stroke-linecap="round" stroke-linejoin="bevel" stroke-miterlimit="10" points="
			510.4,332.4 482.1,317.4 482.1,296 510.4,311 		"/>
		<polygon fill="#FFFFFF" stroke="#3A3B73" stroke-linecap="round" stroke-linejoin="bevel" stroke-miterlimit="10" points="
			510.4,332.4 562,332.4 562,311 510.4,311 		"/>
		<polygon fill="#3A3B73" stroke="#3A3B73" stroke-linejoin="bevel" stroke-miterlimit="10" points="510.4,311 562,311 534.1,296 
			482.2,296 		"/>
	</g>
	<circle fill="#3A3B73" stroke="#3A3B73" stroke-linejoin="bevel" stroke-miterlimit="10" cx="913.6" cy="405.5" r="8"/>
	<circle fill="#3A3B73" stroke="#3A3B73" stroke-linejoin="bevel" stroke-miterlimit="10" cx="959.7" cy="241.5" r="8"/>
	<circle fill="#3A3B73" stroke="#3A3B73" stroke-linejoin="bevel" stroke-miterlimit="10" cx="991.8" cy="241.5" r="8"/>
	<circle fill="#3A3B73" stroke="#3A3B73" stroke-linejoin="bevel" stroke-miterlimit="10" cx="1025.1" cy="241.5" r="8"/>
	<path fill="#3A3B73" d="M557.6,346c-1.6,9.5,0.9,21.2,5.5,26.2s9.6,1.3,11.3-8.3c1.6-9.5-0.9-21.2-5.5-26.2
		C564.2,332.8,559.2,336.6,557.6,346z"/>
	<path fill="#FFFFFF" stroke="#3A3B73" stroke-miterlimit="10" d="M561.2,349.9c-0.9,5.4,0.5,12.1,3.1,14.9c2.6,2.8,5.5,0.8,6.4-4.7
		c0.9-5.4-0.5-12.1-3.1-14.9C565,342.4,562.1,344.5,561.2,349.9z"/>
	<path fill="#FFFFFF" stroke="#3A3B73" stroke-miterlimit="10" d="M556.8,349.9c-0.9,5.4,0.5,12.1,3.1,14.9s5.5,0.8,6.4-4.7
		c0.9-5.4-0.5-12.1-3.1-14.9C560.6,342.4,557.8,344.5,556.8,349.9z"/>
	<path fill="#FFFFFF" stroke="#3A3B73" stroke-miterlimit="10" d="M552.5,349.9c-0.9,5.4,0.5,12.1,3.1,14.9c2.6,2.8,5.5,0.8,6.4-4.7
		c0.9-5.4-0.5-12.1-3.1-14.9C556.3,342.4,553.4,344.5,552.5,349.9z"/>
	<path fill="#FFFFFF" stroke="#3A3B73" stroke-miterlimit="10" d="M548.1,349.9c-0.9,5.4,0.5,12.1,3.1,14.9s5.5,0.8,6.4-4.7
		c0.9-5.4-0.5-12.1-3.1-14.9C551.9,342.4,549.1,344.5,548.1,349.9z"/>
	<path fill="#FFFFFF" stroke="#3A3B73" stroke-miterlimit="10" d="M543.8,349.9c-0.9,5.4,0.5,12.1,3.1,14.9c2.6,2.8,5.5,0.8,6.4-4.7
		c0.9-5.4-0.5-12.1-3.1-14.9C547.6,342.4,544.7,344.5,543.8,349.9z"/>
	<path fill="#FFFFFF" stroke="#3A3B73" stroke-miterlimit="10" d="M539.4,349.9c-0.9,5.4,0.5,12.1,3.1,14.9s5.5,0.8,6.4-4.7
		c0.9-5.4-0.5-12.1-3.1-14.9C543.2,342.4,540.4,344.5,539.4,349.9z"/>
	<path fill="#FFFFFF" stroke="#3A3B73" stroke-miterlimit="10" d="M535.2,349.9c-0.9,5.4,0.5,12.1,3.1,14.9c2.6,2.8,5.5,0.8,6.4-4.7
		c0.9-5.4-0.5-12.1-3.1-14.9C538.9,342.4,536,344.5,535.2,349.9z"/>
	<path fill="#FFFFFF" stroke="#3A3B73" stroke-miterlimit="10" d="M530.8,349.9c-0.9,5.4,0.5,12.1,3.1,14.9c2.6,2.8,5.5,0.8,6.4-4.7
		c0.9-5.4-0.5-12.1-3.1-14.9C534.6,342.4,531.7,344.5,530.8,349.9z"/>
	<path fill="#3A3B73" stroke="#3A3B73" stroke-miterlimit="10" d="M528.4,352c-0.5,3.2,0.3,7.2,1.8,8.8c1.5,1.7,3.2,0.4,3.8-2.8
		c0.5-3.2-0.3-7.2-1.8-8.8C530.7,347.6,528.9,348.8,528.4,352z"/>
	<g>
		<polygon fill="none" stroke="#3A3B73" stroke-linecap="round" stroke-linejoin="bevel" stroke-miterlimit="10" points="863,389.8 
			785.5,348.9 785.5,339.1 862.9,379.9 		"/>
		
			<rect x="863.2" y="380" fill="#3A3B73" stroke="#3A3B73" stroke-linejoin="bevel" stroke-miterlimit="10" width="64.1" height="9.9"/>
		<polygon fill="#FFFFFF" stroke="#3A3B73" stroke-linejoin="bevel" stroke-miterlimit="10" points="863.2,379.9 927.3,379.9 
			850,339.1 786,339.1 		"/>
	</g>
	<g>
		<polygon fill="none" stroke="#3A3B73" stroke-linecap="round" stroke-linejoin="bevel" stroke-miterlimit="10" points="
			955.9,390.8 878.7,350 878.7,340.1 956,381 		"/>
		
			<rect x="955.9" y="381.1" fill="#3A3B73" stroke="#3A3B73" stroke-linejoin="bevel" stroke-miterlimit="10" width="323.5" height="9.9"/>
		<polygon fill="#FFFFFF" stroke="#3A3B73" stroke-linejoin="bevel" stroke-miterlimit="10" points="955.9,381 1279.5,381 
			1202.2,340.1 878.6,340.1 		"/>
	</g>
	<g>
		<path fill="#3A3B73" stroke="#3A3B73" stroke-linejoin="bevel" stroke-miterlimit="10" d="M913.9,380.6c0-10.7,9.4-21.1,21-21.1
			s21,10.4,21,21.1h12.9c0-18.2-15.1-34-33.9-34c-18.8,0-33.9,15.8-33.9,34H913.9z"/>
		<path fill="#FFFFFF" stroke="#3A3B73" stroke-linejoin="bevel" stroke-miterlimit="10" d="M927,380.6c0-10.7,9.4-21.1,21-21.1
			s21,10.4,21,21.1h12.9c0-18.2-15.1-34-33.9-34c-18.8,0-33.9,15.8-33.9,34H927z"/>
	</g>
	<g>
		<polygon fill="#FFFFFF" stroke="#3A3B73" stroke-linecap="round" stroke-linejoin="bevel" stroke-miterlimit="10" points="
			969.9,499.6 932.8,480.9 932.8,398.4 969.9,417.3 		"/>
		<polygon fill="#FFFFFF" stroke="#3A3B73" stroke-linecap="round" stroke-linejoin="bevel" stroke-miterlimit="10" points="
			969.9,499.6 1203.6,499.6 1203.6,417.3 969.9,417.3 		"/>
		<polygon fill="#3A3B73" stroke="#3A3B73" stroke-linejoin="bevel" stroke-miterlimit="10" points="969.9,417.3 1203.6,417.3 
			1166.9,398.4 932.9,398.4 		"/>
	</g>
	<g>
		<polygon fill="#FFFFFF" stroke="#3A3B73" stroke-linecap="round" stroke-linejoin="bevel" stroke-miterlimit="10" points="
			498.2,304.5 482.1,296 482.1,274.5 498.2,283.1 		"/>
		<polygon fill="#FFFFFF" stroke="#3A3B73" stroke-linecap="round" stroke-linejoin="bevel" stroke-miterlimit="10" points="
			498.2,304.5 637.5,304.5 637.5,283.1 498.2,283.1 		"/>
		<polygon fill="#3A3B73" stroke="#3A3B73" stroke-linejoin="bevel" stroke-miterlimit="10" points="498.2,283.1 637.5,283.1 
			621.9,274.5 482.2,274.5 		"/>
	</g>
	<g>
		<polygon fill="#FFFFFF" stroke="#3A3B73" stroke-linecap="round" stroke-linejoin="bevel" stroke-miterlimit="10" points="
			504.6,502.4 459.6,477.8 459.6,462.1 504.6,486.8 		"/>
		<polygon fill="#FFFFFF" stroke="#3A3B73" stroke-linecap="round" stroke-linejoin="bevel" stroke-miterlimit="10" points="
			504.6,502.4 513.1,502.4 513.1,486.8 504.6,486.8 		"/>
		<polygon fill="#3A3B73" stroke="#3A3B73" stroke-linejoin="bevel" stroke-miterlimit="10" points="504.6,486.8 513.1,486.8 
			468.3,462.1 459.6,462.1 		"/>
	</g>
	<g>
		<polygon fill="#FFFFFF" stroke="#3A3B73" stroke-linecap="round" stroke-linejoin="bevel" stroke-miterlimit="10" points="
			330.7,525.1 304.2,511.1 304.2,459.7 330.7,473.7 		"/>
		<polygon fill="#FFFFFF" stroke="#3A3B73" stroke-linejoin="bevel" stroke-miterlimit="10" points="330.7,525.1 382.4,525.1 
			382.4,473.7 330.7,473.7 		"/>
		<polygon fill="#3A3B73" stroke="#3A3B73" stroke-linejoin="bevel" stroke-miterlimit="10" points="330.7,473.7 382.4,473.7 
			356.2,459.7 304.3,459.7 		"/>
	</g>
	<g>
		<polygon fill="none" stroke="#3A3B73" stroke-linecap="round" stroke-linejoin="bevel" stroke-miterlimit="10" points="
			298.3,562.5 252.7,538.3 252.7,459.7 298.3,483.8 		"/>
		<polygon fill="#FFFFFF" stroke="#3A3B73" stroke-linejoin="bevel" stroke-miterlimit="10" points="298.3,562.5 349.9,562.5 
			349.9,483.8 298.3,483.8 		"/>
		<polygon fill="#3A3B73" stroke="#3A3B73" stroke-linejoin="bevel" stroke-miterlimit="10" points="298.3,483.8 349.9,483.8 
			304.7,459.7 252.8,459.7 		"/>
	</g>
	<g>
		<polygon fill="#FFFFFF" stroke="#3A3B73" stroke-linecap="round" stroke-linejoin="bevel" stroke-miterlimit="10" points="
			364,472.3 289.7,432 289.7,345.2 364,385.5 		"/>
		<polygon fill="#FFFFFF" stroke="#3A3B73" stroke-linecap="round" stroke-linejoin="bevel" stroke-miterlimit="10" points="
			364,472.3 503.3,472.3 503.3,385.5 364,385.5 		"/>
		<polygon fill="#3A3B73" stroke="#3A3B73" stroke-linejoin="bevel" stroke-miterlimit="10" points="364,385.5 503.3,385.5 
			429.3,345.2 289.7,345.2 		"/>
	</g>
	<g>
		<polygon fill="#FFFFFF" stroke="#3A3B73" stroke-linecap="round" stroke-linejoin="bevel" stroke-miterlimit="10" points="
			364,367.2 289.7,326.9 289.7,233.7 364,274 		"/>
		<polygon fill="#FFFFFF" stroke="#3A3B73" stroke-linecap="round" stroke-linejoin="bevel" stroke-miterlimit="10" points="
			364,367.2 481.9,367.2 481.9,274 364,274 		"/>
		<polygon fill="#3A3B73" stroke="#3A3B73" stroke-linejoin="bevel" stroke-miterlimit="10" points="364,274 481.9,274 407.9,233.7 
			289.7,233.7 		"/>
	</g>
	<g>
		<polygon fill="#FFFFFF" stroke="#3A3B73" stroke-linecap="round" stroke-linejoin="bevel" stroke-miterlimit="10" points="
			485.8,596.8 443.3,573.7 443.3,479.4 485.8,502.4 		"/>
		<polygon fill="#FFFFFF" stroke="#3A3B73" stroke-linecap="round" stroke-linejoin="bevel" stroke-miterlimit="10" points="
			485.8,596.8 504.6,596.8 504.6,502.4 485.8,502.4 		"/>
		<polygon fill="#3A3B73" stroke="#3A3B73" stroke-linejoin="bevel" stroke-miterlimit="10" points="485.8,502.4 504.6,502.4 
			462.5,479.4 443.3,479.4 		"/>
	</g>
	<g>
		<polygon fill="#FFFFFF" stroke="#3A3B73" stroke-linecap="round" stroke-linejoin="bevel" stroke-miterlimit="10" points="
			436.9,574.9 421.9,566.9 421.9,472.5 436.9,480.7 		"/>
		<polygon fill="#FFFFFF" stroke="#3A3B73" stroke-linecap="round" stroke-linejoin="bevel" stroke-miterlimit="10" points="
			436.9,574.9 476.1,574.9 476.1,480.7 436.9,480.7 		"/>
		<polygon fill="#3A3B73" stroke="#3A3B73" stroke-linejoin="bevel" stroke-miterlimit="10" points="436.9,480.7 476.1,480.7 
			461.5,472.5 421.9,472.5 		"/>
	</g>
	<g>
		<polygon fill="#FFFFFF" stroke="#3A3B73" stroke-linecap="round" stroke-linejoin="bevel" stroke-miterlimit="10" points="
			397.3,533.1 382.4,525.1 382.4,503.6 397.3,511.8 		"/>
		<polygon fill="#FFFFFF" stroke="#3A3B73" stroke-linecap="round" stroke-linejoin="bevel" stroke-miterlimit="10" points="
			397.3,533.1 436.5,533.1 436.5,511.8 397.3,511.8 		"/>
		<polygon fill="#3A3B73" stroke="#3A3B73" stroke-linejoin="bevel" stroke-miterlimit="10" points="397.3,511.8 436.5,511.8 
			421.9,503.6 382.4,503.6 		"/>
	</g>
	<g>
		<polygon fill="#FFFFFF" stroke="#3A3B73" stroke-linecap="round" stroke-linejoin="bevel" stroke-miterlimit="10" points="
			34.7,515.9 0.5,498.6 0.5,466.4 34.7,483.8 		"/>
		<polygon fill="#FFFFFF" stroke="#3A3B73" stroke-linecap="round" stroke-linejoin="bevel" stroke-miterlimit="10" points="
			34.7,515.9 257.8,515.9 257.8,483.8 34.7,483.8 		"/>
		<polygon fill="#3A3B73" stroke="#3A3B73" stroke-linejoin="bevel" stroke-miterlimit="10" points="34.7,483.8 257.8,483.8 
			224.1,466.4 0.5,466.4 		"/>
	</g>
	<g>
		<polygon fill="#FFFFFF" stroke="#3A3B73" stroke-linecap="round" stroke-linejoin="bevel" stroke-miterlimit="10" points="
			259.8,568.7 201.1,537.4 201.1,526.7 259.8,558 		"/>
		<polygon fill="#FFFFFF" stroke="#3A3B73" stroke-linecap="round" stroke-linejoin="bevel" stroke-miterlimit="10" points="
			259.8,568.7 311.4,568.7 311.4,558 259.8,558 		"/>
		<polygon fill="#3A3B73" stroke="#3A3B73" stroke-linejoin="bevel" stroke-miterlimit="10" points="259.8,558 311.4,558 253,526.7 
			201.1,526.7 		"/>
	</g>
	<g>
		<polygon fill="#FFFFFF" stroke="#3A3B73" stroke-linecap="round" stroke-linejoin="bevel" stroke-miterlimit="10" points="
			229.4,496 201.1,481.1 201.1,459.7 229.4,474.7 		"/>
		<polygon fill="#FFFFFF" stroke="#3A3B73" stroke-linecap="round" stroke-linejoin="bevel" stroke-miterlimit="10" points="
			229.4,496 281,496 281,474.7 229.4,474.7 		"/>
		<polygon fill="#3A3B73" stroke="#3A3B73" stroke-linejoin="bevel" stroke-miterlimit="10" points="229.4,474.7 281,474.7 
			253,459.7 201.1,459.7 		"/>
	</g>
	<g>
		<polygon fill="#FFFFFF" stroke="#3A3B73" stroke-linecap="round" stroke-linejoin="bevel" stroke-miterlimit="10" points="
			217.2,468.1 201.1,459.7 201.1,438.2 217.2,446.8 		"/>
		<polygon fill="#FFFFFF" stroke="#3A3B73" stroke-linecap="round" stroke-linejoin="bevel" stroke-miterlimit="10" points="
			217.2,468.1 356.6,468.1 356.6,446.8 217.2,446.8 		"/>
		<polygon fill="#3A3B73" stroke="#3A3B73" stroke-linejoin="bevel" stroke-miterlimit="10" points="217.2,446.8 356.6,446.8 
			340.8,438.2 201.1,438.2 		"/>
	</g>
	<g>
		<polygon fill="#FFFFFF" stroke="#3A3B73" stroke-linecap="round" stroke-linejoin="bevel" stroke-miterlimit="10" points="
			447.5,448.9 402.2,423.9 402.2,402.4 447.5,427.5 		"/>
		<polygon fill="#FFFFFF" stroke="#3A3B73" stroke-linecap="round" stroke-linejoin="bevel" stroke-miterlimit="10" points="
			447.5,448.9 561.7,448.9 561.7,427.5 447.5,427.5 		"/>
		<polygon fill="#3A3B73" stroke="#3A3B73" stroke-linejoin="bevel" stroke-miterlimit="10" points="447.5,427.5 561.7,427.5 
			516.8,402.4 402.2,402.4 		"/>
	</g>
	<polyline fill="none" stroke="#3A3B73" stroke-linecap="round" stroke-linejoin="bevel" stroke-miterlimit="10" points="
		1017.9,578.5 978.5,578.8 916.3,545.5 916.3,535.6 	"/>
	<rect x="979.5" y="570" fill="#3A3B73" stroke="#3A3B73" stroke-miterlimit="10" width="38.7" height="8.9"/>
	<polygon fill="#FFFFFF" stroke="#3A3B73" stroke-linejoin="bevel" stroke-miterlimit="10" points="1018.1,569.4 956,536.1 
		916.7,536.1 978.9,569.4 	"/>
	<polyline fill="none" stroke="#3A3B73" stroke-linecap="round" stroke-linejoin="bevel" stroke-miterlimit="10" points="
		1056.5,568.9 1017.1,569.1 954.9,535.9 954.9,525.9 	"/>
	<rect x="1018.1" y="560.3" fill="#3A3B73" stroke="#3A3B73" stroke-miterlimit="10" width="38.7" height="8.9"/>
	<polygon fill="#FFFFFF" stroke="#3A3B73" stroke-linejoin="bevel" stroke-miterlimit="10" points="1056.7,559.8 994.6,526.4 
		955.3,526.4 1017.5,559.8 	"/>
	<polyline fill="none" stroke="#3A3B73" stroke-linecap="round" stroke-linejoin="bevel" stroke-miterlimit="10" points="
		1095.1,559.2 1055.7,559.5 993.4,526.2 993.4,516.3 	"/>
	<rect x="1056.7" y="550.7" fill="#3A3B73" stroke="#3A3B73" stroke-miterlimit="10" width="38.7" height="8.9"/>
	<polygon fill="#FFFFFF" stroke="#3A3B73" stroke-linejoin="bevel" stroke-miterlimit="10" points="1095.3,550.1 1033.2,516.8 
		993.9,516.8 1056.1,550.1 	"/>
	<polyline fill="none" stroke="#3A3B73" stroke-linecap="round" stroke-linejoin="bevel" stroke-miterlimit="10" points="
		1134.7,549.6 1095.4,549.8 1033.1,516.6 1033.1,506.6 	"/>
	<rect x="1096.4" y="541" fill="#3A3B73" stroke="#3A3B73" stroke-miterlimit="10" width="38.7" height="8.9"/>
	<polygon fill="#FFFFFF" stroke="#3A3B73" stroke-linejoin="bevel" stroke-miterlimit="10" points="1135,540.5 1072.9,507.1 
		1033.5,507.1 1095.7,540.5 	"/>
	<polyline fill="none" stroke="#3A3B73" stroke-linecap="round" stroke-linejoin="bevel" stroke-miterlimit="10" points="
		1173.3,540 1134,540.2 1071.7,506.9 1071.7,497 	"/>
	<rect x="1135" y="531.4" fill="#3A3B73" stroke="#3A3B73" stroke-miterlimit="10" width="38.7" height="8.9"/>
	<polygon fill="#FFFFFF" stroke="#3A3B73" stroke-linejoin="bevel" stroke-miterlimit="10" points="1173.5,530.8 1111.5,497.5 
		1072.1,497.5 1134.3,530.8 	"/>
	<polyline fill="none" stroke="#3A3B73" stroke-linecap="round" stroke-linejoin="bevel" stroke-miterlimit="10" points="979,568.7 
		939.7,568.7 877.7,535.3 877.7,525.9 	"/>
	<rect x="940.2" y="559.7" fill="#3A3B73" stroke="#3A3B73" stroke-miterlimit="10" width="38.7" height="8.9"/>
	<polygon fill="#FFFFFF" stroke="#3A3B73" stroke-linejoin="bevel" stroke-miterlimit="10" points="978.8,559.2 916.7,525.9 
		877.3,525.9 939.5,559.2 	"/>
	<polyline fill="none" stroke="#3A3B73" stroke-linecap="round" stroke-linejoin="bevel" stroke-miterlimit="10" points="
		939.8,559.1 900.4,559.1 838,525.9 838,516.3 	"/>
	<rect x="901.6" y="550.2" fill="#3A3B73" stroke="#3A3B73" stroke-miterlimit="10" width="38.7" height="8.9"/>
	<polygon fill="#FFFFFF" stroke="#3A3B73" stroke-linejoin="bevel" stroke-miterlimit="10" points="940.2,549.7 878.2,516.5 
		838.9,516.5 901,549.7 	"/>
	<polyline fill="none" stroke="#3A3B73" stroke-linecap="round" stroke-linejoin="bevel" stroke-miterlimit="10" points="
		900.3,548.6 860.8,548.9 798.3,515.6 798.3,505.5 	"/>
	<rect x="862.2" y="540.1" fill="#3A3B73" stroke="#3A3B73" stroke-miterlimit="10" width="38.7" height="8.9"/>
	<polygon fill="#FFFFFF" stroke="#3A3B73" stroke-linejoin="bevel" stroke-miterlimit="10" points="900.8,539.5 838.9,506.2 
		799.5,506.2 861.7,539.5 	"/>
	<polyline fill="none" stroke="#3A3B73" stroke-linecap="round" stroke-linejoin="bevel" stroke-miterlimit="10" points="
		861.4,538.9 822,539.1 759.7,505.9 759.7,495.9 	"/>
	<rect x="823" y="530.3" fill="#3A3B73" stroke="#3A3B73" stroke-miterlimit="10" width="38.7" height="8.9"/>
	<polygon fill="#FFFFFF" stroke="#3A3B73" stroke-linejoin="bevel" stroke-miterlimit="10" points="861.6,529.8 799.5,496.4 
		760.2,496.4 822.4,529.8 	"/>
	<polyline fill="none" stroke="#3A3B73" stroke-linecap="round" stroke-linejoin="bevel" stroke-miterlimit="10" points="822.5,529 
		783.2,529 721.2,495.7 721.2,486.2 	"/>
	<rect x="783.7" y="520" fill="#3A3B73" stroke="#3A3B73" stroke-miterlimit="10" width="38.7" height="8.9"/>
	<polygon fill="#FFFFFF" stroke="#3A3B73" stroke-linejoin="bevel" stroke-miterlimit="10" points="822.2,519.6 760.2,486.2 
		720.8,486.2 783,519.6 	"/>
	<polyline fill="none" stroke="#3A3B73" stroke-linecap="round" stroke-linejoin="bevel" stroke-miterlimit="10" points="
		783.3,519.5 743.9,519.5 681.5,486.2 681.5,476.6 	"/>
	<rect x="745.1" y="510.6" fill="#3A3B73" stroke="#3A3B73" stroke-miterlimit="10" width="38.7" height="8.9"/>
	<polygon fill="#FFFFFF" stroke="#3A3B73" stroke-linejoin="bevel" stroke-miterlimit="10" points="783.7,510 721.7,476.8 
		682.3,476.8 744.5,510 	"/>
	<polyline fill="none" stroke="#3A3B73" stroke-linecap="round" stroke-linejoin="bevel" stroke-miterlimit="10" points="743.8,509 
		565,509.2 502.5,476 502.5,465.9 	"/>
	
		<rect x="566.4" y="500.4" fill="#3A3B73" stroke="#3A3B73" stroke-linecap="round" stroke-linejoin="bevel" stroke-miterlimit="10" width="178.1" height="8.9"/>
	<polygon fill="#FFFFFF" stroke="#3A3B73" stroke-linejoin="bevel" stroke-miterlimit="10" points="744.3,499.9 682.3,466.5 
		503.6,466.5 565.8,499.9 	"/>
	<path fill="#3A3B73" stroke="#3A3B73" stroke-linecap="round" stroke-linejoin="bevel" stroke-miterlimit="10" d="M536.2,534.8
		l27,13.7h6.1l-27-13.7C542.2,534.8,540.3,534.8,536.2,534.8z"/>
	<polygon fill="#FFFFFF" stroke="#3A3B73" stroke-linejoin="bevel" stroke-miterlimit="10" points="536.1,546.6 563.1,560.4 
		563.1,548.6 536.1,534.8 	"/>
	
		<rect x="563.2" y="548.6" fill="none" stroke="#3A3B73" stroke-linecap="round" stroke-linejoin="bevel" stroke-miterlimit="10" width="6.1" height="11.8"/>
	<path fill="#3A3B73" stroke="#3A3B73" stroke-linecap="round" stroke-linejoin="bevel" stroke-miterlimit="10" d="M522.3,513.6
		l83.6,42.9h19.3l-83.6-42.9C541.6,513.6,526.4,513.6,522.3,513.6z"/>
	<polygon fill="#FFFFFF" stroke="#3A3B73" stroke-linejoin="bevel" stroke-miterlimit="10" points="522.3,518.9 605.9,561.8 
		605.9,556.5 522.3,513.6 	"/>
	
		<rect x="605.9" y="556.5" fill="#FFFFFF" stroke="#3A3B73" stroke-linejoin="bevel" stroke-miterlimit="10" width="19.3" height="5.4"/>
	<g>
		<path fill="#3A3B73" stroke="#3A3B73" stroke-linecap="round" stroke-linejoin="bevel" stroke-miterlimit="10" d="M862.7,453.8
			l26.3,13.7h34.3L897,453.8C897,453.8,866.8,453.8,862.7,453.8z"/>
		<polygon fill="#FFFFFF" stroke="#3A3B73" stroke-linejoin="bevel" stroke-miterlimit="10" points="862.7,459.1 888.9,472.8 
			888.9,467.5 862.7,453.8 		"/>
		
			<rect x="888.9" y="467.5" fill="#FFFFFF" stroke="#3A3B73" stroke-linejoin="bevel" stroke-miterlimit="10" width="34.3" height="5.4"/>
	</g>
	<path fill="#3A3B73" stroke="#3A3B73" stroke-linecap="round" stroke-linejoin="bevel" stroke-miterlimit="10" d="M522.3,550.6
		l69.1,35.5h6.1l-69.1-35.5C528.4,550.6,526.4,550.6,522.3,550.6z"/>
	<polygon fill="#FFFFFF" stroke="#3A3B73" stroke-linejoin="bevel" stroke-miterlimit="10" points="522.3,555.9 591.4,591.4 
		591.4,586.1 522.3,550.6 	"/>
	
		<rect x="591.4" y="586.1" fill="none" stroke="#3A3B73" stroke-linecap="round" stroke-linejoin="bevel" stroke-miterlimit="10" width="6.1" height="5.4"/>
	<path fill="#3A3B73" stroke="#3A3B73" stroke-linecap="round" stroke-linejoin="bevel" stroke-miterlimit="10" d="M537.1,205.2
		l27,13.7h6.1l-27-13.7C543.2,205.2,541.3,205.2,537.1,205.2z"/>
	<polygon fill="#FFFFFF" stroke="#3A3B73" stroke-linejoin="bevel" stroke-miterlimit="10" points="537.1,217 564.1,230.8 
		564.1,219 537.1,205.2 	"/>
	
		<rect x="564.2" y="219" fill="none" stroke="#3A3B73" stroke-linecap="round" stroke-linejoin="bevel" stroke-miterlimit="10" width="6.1" height="11.8"/>
	<g>
		<path fill="#3A3B73" stroke="#3A3B73" stroke-linecap="round" stroke-linejoin="bevel" stroke-miterlimit="10" d="M196.3,208.1
			l69.1,35.5h6.1l-69.1-35.5C202.4,208.1,200.4,208.1,196.3,208.1z"/>
		<polygon fill="#FFFFFF" stroke="#3A3B73" stroke-linejoin="bevel" stroke-miterlimit="10" points="196.2,213.4 265.3,248.9 
			265.3,243.5 196.2,208.1 		"/>
		
			<rect x="265.4" y="243.5" fill="#FFFFFF" stroke="#3A3B73" stroke-linecap="round" stroke-linejoin="bevel" stroke-miterlimit="10" width="6.1" height="5.4"/>
	</g>
	<g>
		<path fill="#3A3B73" stroke="#3A3B73" stroke-linecap="round" stroke-linejoin="bevel" stroke-miterlimit="10" d="M387,293.7
			l69.1,35.5h6.1l-69.1-35.5C393,293.7,391.1,293.7,387,293.7z"/>
		<polygon fill="#FFFFFF" stroke="#3A3B73" stroke-linejoin="bevel" stroke-miterlimit="10" points="386.9,299.1 456,334.7 
			456,329.3 386.9,293.7 		"/>
		
			<rect x="456.1" y="329.3" fill="#FFFFFF" stroke="#3A3B73" stroke-linecap="round" stroke-linejoin="bevel" stroke-miterlimit="10" width="6.1" height="5.4"/>
	</g>
	<g>
		<path fill="#3A3B73" stroke="#3A3B73" stroke-linecap="round" stroke-linejoin="bevel" stroke-miterlimit="10" d="M373.8,308.3
			l34.6,17.8h16.8l-34.6-17.8C390.5,308.3,377.9,308.3,373.8,308.3z"/>
		<polygon fill="#FFFFFF" stroke="#3A3B73" stroke-linejoin="bevel" stroke-miterlimit="10" points="373.7,313.6 408.3,331.4 
			408.3,326.1 373.7,308.3 		"/>
		
			<rect x="408.3" y="326.1" fill="#FFFFFF" stroke="#3A3B73" stroke-linecap="round" stroke-linejoin="bevel" stroke-miterlimit="10" width="16.8" height="5.4"/>
	</g>
	<g>
		<path fill="#3A3B73" stroke="#3A3B73" stroke-linecap="round" stroke-linejoin="bevel" stroke-miterlimit="10" d="M598.3,347.5
			l69.1,35.5h6.1l-69.1-35.5C604.3,347.5,602.4,347.5,598.3,347.5z"/>
		<polygon fill="#FFFFFF" stroke="#3A3B73" stroke-linejoin="bevel" stroke-miterlimit="10" points="598.2,352.9 667.3,388.4 
			667.3,383 598.2,347.5 		"/>
		
			<rect x="667.4" y="383" fill="#FFFFFF" stroke="#3A3B73" stroke-linecap="round" stroke-linejoin="bevel" stroke-miterlimit="10" width="6.1" height="5.4"/>
	</g>
	<g>
		<path fill="#3A3B73" stroke="#3A3B73" stroke-linecap="round" stroke-linejoin="bevel" stroke-miterlimit="10" d="M585.1,365.3
			l34.6,17.8h16.8l-34.6-17.8C601.8,365.3,589.2,365.3,585.1,365.3z"/>
		<polygon fill="#FFFFFF" stroke="#3A3B73" stroke-linejoin="bevel" stroke-miterlimit="10" points="585,370.7 619.6,388.4 
			619.6,383 585,365.3 		"/>
		
			<rect x="619.6" y="383" fill="#FFFFFF" stroke="#3A3B73" stroke-linecap="round" stroke-linejoin="bevel" stroke-miterlimit="10" width="16.8" height="5.4"/>
	</g>
	<g>
		<path fill="#3A3B73" stroke="#3A3B73" stroke-linecap="round" stroke-linejoin="bevel" stroke-miterlimit="10" d="M373.8,324.4
			l14.4,7.4h4l-14.4-7.4C377.7,324.4,377.9,324.4,373.8,324.4z"/>
		<polygon fill="#FFFFFF" stroke="#3A3B73" stroke-linejoin="bevel" stroke-miterlimit="10" points="373.7,340.4 388.1,347.8 
			388.1,331.8 373.7,324.4 		"/>
		
			<rect x="388.1" y="331.8" fill="#FFFFFF" stroke="#3A3B73" stroke-linecap="round" stroke-linejoin="bevel" stroke-miterlimit="10" width="4" height="16.1"/>
	</g>
	<g>
		<path fill="#3A3B73" stroke="#3A3B73" stroke-linecap="round" stroke-linejoin="bevel" stroke-miterlimit="10" d="M110.5,293.8
			l69.1,35.5h6.1l-69.1-35.5C116.6,293.8,114.6,293.8,110.5,293.8z"/>
		
			<rect x="179.7" y="329.3" fill="#FFFFFF" stroke="#3A3B73" stroke-linecap="round" stroke-linejoin="bevel" stroke-miterlimit="10" width="6.1" height="101.8"/>
	</g>
	<g>
		<path fill="#3A3B73" stroke="#3A3B73" stroke-linecap="round" stroke-linejoin="bevel" stroke-miterlimit="10" d="M185.6,218.8
			l69.1,35.5h6.1l-69.1-35.5C191.7,218.8,189.6,218.8,185.6,218.8z"/>
		<polygon fill="#FFFFFF" stroke="#3A3B73" stroke-linejoin="bevel" stroke-miterlimit="10" points="185.5,245.6 254.6,281.1 
			254.6,254.3 185.5,218.8 		"/>
		
			<rect x="254.7" y="254.3" fill="#FFFFFF" stroke="#3A3B73" stroke-linecap="round" stroke-linejoin="bevel" stroke-miterlimit="10" width="6.1" height="26.8"/>
	</g>
	<g>
		<path fill="#3A3B73" stroke="#3A3B73" stroke-linecap="round" stroke-linejoin="bevel" stroke-miterlimit="10" d="M132,229.5
			l69.1,35.5h49L181,229.5C181,229.5,136,229.5,132,229.5z"/>
		<polygon fill="#FFFFFF" stroke="#3A3B73" stroke-linejoin="bevel" stroke-miterlimit="10" points="131.9,245.6 201,281.1 201,265 
			131.9,229.5 		"/>
		
			<rect x="201.1" y="265" fill="#FFFFFF" stroke="#3A3B73" stroke-linecap="round" stroke-linejoin="bevel" stroke-miterlimit="10" width="49" height="16.1"/>
	</g>
	<path fill="#3A3B73" stroke="#3A3B73" stroke-linecap="round" stroke-linejoin="bevel" stroke-miterlimit="10" d="M606.9,217.7
		l17.6,9.2h317l-17.6-9.2C923.9,217.7,610.9,217.7,606.9,217.7z"/>
	<polygon fill="#FFFFFF" stroke="#3A3B73" stroke-linejoin="bevel" stroke-miterlimit="10" points="606.8,256.3 624.3,265.5 
		624.3,226.9 606.8,217.7 	"/>
	
		<rect x="624.3" y="226.9" fill="none" stroke="#3A3B73" stroke-linecap="round" stroke-linejoin="bevel" stroke-miterlimit="10" width="317" height="38.6"/>
	<path fill="#3A3B73" stroke="#3A3B73" stroke-linecap="round" stroke-linejoin="bevel" stroke-miterlimit="10" d="M611.8,411.3
		l69.1,35.5h113.3l-69.1-35.5C725,411.3,615.9,411.3,611.8,411.3z"/>
	<polygon fill="#FFFFFF" stroke="#3A3B73" stroke-linejoin="bevel" stroke-miterlimit="10" points="611.7,456.3 680.8,491.8 
		680.8,446.8 611.7,411.3 	"/>
	
		<rect x="681" y="446.8" fill="#FFFFFF" stroke="#3A3B73" stroke-linejoin="bevel" stroke-miterlimit="10" width="113.3" height="45"/>
	<polygon fill="#FFFFFF" stroke="#3A3B73" stroke-linecap="round" stroke-linejoin="bevel" stroke-miterlimit="10" points="
		849.8,362.7 872.4,350.7 849.8,314.8 849.8,314.8 	"/>
	<polygon fill="#3A3B73" stroke="#3A3B73" stroke-linecap="round" stroke-linejoin="bevel" stroke-miterlimit="10" points="
		849.8,362.7 827.2,350.7 849.8,314.8 849.8,314.8 	"/>
	<g>
		<polygon fill="#FFFFFF" stroke="#3A3B73" stroke-linecap="round" stroke-linejoin="bevel" stroke-miterlimit="10" points="
			1231,513.6 1138.3,463.5 1138.3,442.1 1231,492.1 		"/>
		<polygon fill="#FFFFFF" stroke="#3A3B73" stroke-linecap="round" stroke-linejoin="bevel" stroke-miterlimit="10" points="
			1231,513.6 1270.2,513.6 1270.2,492.1 1231,492.1 		"/>
		<polygon fill="#3A3B73" stroke="#3A3B73" stroke-linejoin="bevel" stroke-miterlimit="10" points="1231,492.1 1270.2,492.1 
			1177.8,442.1 1138.3,442.1 		"/>
	</g>
	<g>
		<polygon fill="#FFFFFF" stroke="#3A3B73" stroke-linecap="round" stroke-linejoin="bevel" stroke-miterlimit="10" points="
			1164.5,513.6 1071.8,463.5 1071.8,442.1 1164.5,492.1 		"/>
		<polygon fill="#FFFFFF" stroke="#3A3B73" stroke-linecap="round" stroke-linejoin="bevel" stroke-miterlimit="10" points="
			1164.5,513.6 1203.8,513.6 1203.8,492.1 1164.5,492.1 		"/>
		<polygon fill="#3A3B73" stroke="#3A3B73" stroke-linejoin="bevel" stroke-miterlimit="10" points="1164.5,492.1 1203.8,492.1 
			1111.4,442.1 1071.8,442.1 		"/>
	</g>
	<g>
		<polygon fill="#FFFFFF" stroke="#3A3B73" stroke-linecap="round" stroke-linejoin="bevel" stroke-miterlimit="10" points="
			1098.1,513.6 1005.3,463.5 1005.3,442.1 1098.1,492.1 		"/>
		<polygon fill="#FFFFFF" stroke="#3A3B73" stroke-linecap="round" stroke-linejoin="bevel" stroke-miterlimit="10" points="
			1098.1,513.6 1137.3,513.6 1137.3,492.1 1098.1,492.1 		"/>
		<polygon fill="#3A3B73" stroke="#3A3B73" stroke-linejoin="bevel" stroke-miterlimit="10" points="1098.1,492.1 1137.3,492.1 
			1044.9,442.1 1005.3,442.1 		"/>
	</g>
	<polygon fill="#3A3B73" stroke="#3A3B73" stroke-linecap="round" stroke-linejoin="bevel" stroke-miterlimit="10" points="
		1079.7,374 1017.1,340.7 1079.7,241.1 1079.7,241.1 	"/>
	<polygon fill="#FFFFFF" stroke="#3A3B73" stroke-linecap="round" stroke-linejoin="bevel" stroke-miterlimit="10" points="
		1079.7,374 1142.5,340.7 1079.7,241.1 1079.7,241.1 	"/>
	<path fill="#3A3B73" stroke="#3A3B73" stroke-miterlimit="10" d="M309.5,292.6c-18.2,0-38.4,17.2-38.4,38.2s20.2,38.2,38.4,38.2
		v23.5c-31.1,0-61.7-27.6-61.7-61.5s27.4-61.5,61.7-61.5V292.6z"/>
	<path fill="#FFFFFF" stroke="#3A3B73" stroke-miterlimit="10" d="M309.5,315.5c-18.2,0-38.4,17.2-38.4,38.2s20.2,38.2,38.4,38.2
		v23.4c-31.1,0-61.7-27.6-61.7-61.5s27.4-61.5,61.7-61.5V315.5z"/>
	<path fill="#3A3B73" stroke="#3A3B73" stroke-miterlimit="10" d="M785.5,446c0-19,17.4-39,38.9-39c21.5,0,38.9,20.2,38.9,39h23.8
		c0-32.9-28.1-62.8-62.6-62.8c-34.6,0-62.6,27.4-62.6,62.8H785.5z"/>
	<path fill="#FFFFFF" stroke="#3A3B73" stroke-miterlimit="10" d="M794.5,446c0-19,17.4-39,38.9-39c21.4,0,38.9,20.2,38.9,39h23.8
		c0-32.9-28.1-62.8-62.6-62.8c-34.6,0-62.6,27.4-62.6,62.8H794.5z"/>
	<path fill="#3A3B73" d="M607.7,234.2c-1.2,7.3,0.6,16.4,4.2,20.3c3.5,3.9,7.4,1,8.7-6.3c1.2-7.3-0.6-16.4-4.2-20.3
		C612.8,224,608.9,226.8,607.7,234.2z"/>
	<path fill="#FFFFFF" stroke="#3A3B73" stroke-miterlimit="10" d="M610.5,237.2c-0.8,4.2,0.4,9.3,2.4,11.5c2,2.1,4.3,0.5,4.9-3.6
		s-0.4-9.3-2.4-11.5C613.4,231.3,611.2,233,610.5,237.2z"/>
	<path fill="#FFFFFF" stroke="#3A3B73" stroke-miterlimit="10" d="M607.1,237.2c-0.8,4.2,0.4,9.3,2.4,11.5c2,2.1,4.3,0.5,4.9-3.6
		c0.8-4.2-0.4-9.3-2.4-11.5C610.1,231.3,607.8,233,607.1,237.2z"/>
	<path fill="#FFFFFF" stroke="#3A3B73" stroke-miterlimit="10" d="M603.8,237.2c-0.8,4.2,0.4,9.3,2.4,11.5c2,2.1,4.3,0.5,4.9-3.6
		s-0.4-9.3-2.4-11.5C606.7,231.3,604.5,233,603.8,237.2z"/>
	<path fill="#FFFFFF" stroke="#3A3B73" stroke-miterlimit="10" d="M600.4,237.2c-0.8,4.2,0.4,9.3,2.4,11.5c2,2.1,4.3,0.5,4.9-3.6
		c0.8-4.2-0.4-9.3-2.4-11.5C603.3,231.3,601.1,233,600.4,237.2z"/>
	<path fill="#FFFFFF" stroke="#3A3B73" stroke-miterlimit="10" d="M597.1,237.2c-0.8,4.2,0.4,9.3,2.4,11.5c2,2.1,4.3,0.5,4.9-3.6
		s-0.4-9.3-2.4-11.5C600,231.3,597.8,233,597.1,237.2z"/>
	<path fill="#FFFFFF" stroke="#3A3B73" stroke-miterlimit="10" d="M593.7,237.2c-0.8,4.2,0.4,9.3,2.4,11.5c2,2.1,4.3,0.5,4.9-3.6
		c0.8-4.2-0.4-9.3-2.4-11.5C596.7,231.3,594.4,233,593.7,237.2z"/>
	<path fill="#FFFFFF" stroke="#3A3B73" stroke-miterlimit="10" d="M590.4,237.2c-0.8,4.2,0.4,9.3,2.4,11.5c2,2.1,4.3,0.5,4.9-3.6
		c0.8-4.2-0.4-9.3-2.4-11.5C593.3,231.3,591.1,233,590.4,237.2z"/>
	<path fill="#FFFFFF" stroke="#3A3B73" stroke-miterlimit="10" d="M587,237.2c-0.8,4.2,0.4,9.3,2.4,11.5c2,2.1,4.3,0.5,4.9-3.6
		s-0.4-9.3-2.4-11.5C590,231.4,587.7,233,587,237.2z"/>
	<path fill="#3A3B73" stroke="#3A3B73" stroke-miterlimit="10" d="M585.2,238.8c-0.4,2.5,0.2,5.5,1.4,6.8s2.5,0.3,2.9-2.1
		c0.4-2.5-0.2-5.5-1.4-6.8C586.9,235.4,585.5,236.4,585.2,238.8z"/>
	<path fill="#3A3B73" d="M940.3,436.1c-1.6,9.5,0.9,21.2,5.5,26.3c4.6,4.9,9.6,1.3,11.3-8.3c1.6-9.5-0.9-21.2-5.5-26.3
		C946.9,422.9,941.9,426.5,940.3,436.1z"/>
	<path fill="#FFFFFF" stroke="#3A3B73" stroke-miterlimit="10" d="M943.9,439.9c-0.9,5.5,0.5,12.1,3.1,14.9c2.7,2.8,5.5,0.8,6.4-4.7
		c0.9-5.5-0.5-12.1-3.1-14.9C947.7,432.4,944.8,434.6,943.9,439.9z"/>
	<path fill="#FFFFFF" stroke="#3A3B73" stroke-miterlimit="10" d="M939.5,439.9c-0.9,5.5,0.5,12.1,3.1,14.9c2.7,2.8,5.5,0.8,6.4-4.7
		c0.9-5.5-0.5-12.1-3.1-14.9C943.3,432.4,940.5,434.6,939.5,439.9z"/>
	<path fill="#FFFFFF" stroke="#3A3B73" stroke-miterlimit="10" d="M935.2,439.9c-0.9,5.5,0.5,12.1,3.1,14.9c2.7,2.8,5.5,0.8,6.4-4.7
		c0.9-5.5-0.5-12.1-3.1-14.9C939,432.4,936.1,434.6,935.2,439.9z"/>
	<path fill="#FFFFFF" stroke="#3A3B73" stroke-miterlimit="10" d="M930.8,439.9c-0.9,5.5,0.5,12.1,3.1,14.9c2.7,2.8,5.5,0.8,6.4-4.7
		c0.9-5.5-0.5-12.1-3.1-14.9C934.6,432.4,931.8,434.6,930.8,439.9z"/>
	<path fill="#FFFFFF" stroke="#3A3B73" stroke-miterlimit="10" d="M926.6,439.9c-0.9,5.5,0.5,12.1,3.1,14.9c2.7,2.8,5.5,0.8,6.4-4.7
		c0.9-5.5-0.5-12.1-3.1-14.9C930.3,432.4,927.4,434.6,926.6,439.9z"/>
	<path fill="#FFFFFF" stroke="#3A3B73" stroke-miterlimit="10" d="M922.2,439.9c-0.9,5.5,0.5,12.1,3.1,14.9c2.7,2.8,5.5,0.8,6.4-4.7
		c0.9-5.5-0.5-12.1-3.1-14.9C925.9,432.4,923.1,434.6,922.2,439.9z"/>
	<path fill="#FFFFFF" stroke="#3A3B73" stroke-miterlimit="10" d="M917.9,439.9c-0.9,5.5,0.5,12.1,3.1,14.9c2.7,2.8,5.5,0.8,6.4-4.7
		c0.9-5.5-0.5-12.1-3.1-14.9C921.6,432.4,918.7,434.6,917.9,439.9z"/>
	<path fill="#FFFFFF" stroke="#3A3B73" stroke-miterlimit="10" d="M913.5,439.9c-0.9,5.5,0.5,12.1,3.1,14.9c2.7,2.8,5.5,0.8,6.4-4.7
		c0.9-5.5-0.5-12.1-3.1-14.9C917.2,432.4,914.4,434.6,913.5,439.9z"/>
	<path fill="#3A3B73" stroke="#3A3B73" stroke-miterlimit="10" d="M911.1,442.1c-0.5,3.2,0.3,7.2,1.8,8.8c1.5,1.7,3.2,0.4,3.8-2.8
		c0.5-3.2-0.3-7.2-1.8-8.8S911.7,438.9,911.1,442.1z"/>
	<g>
		<path fill="#FFFFFF" stroke="#3A3B73" stroke-linejoin="bevel" stroke-miterlimit="10" d="M110.4,293.8v101.8l69.1,35.5V329.3
			L110.4,293.8z M160.2,379.9c-1.9,8.7-5.1,14.8-9,17.7c-1.9,1.5-3.4,2-3.7,2.1c-3.8,1.6-10.8-1.3-14.6-5.8
			c-8.6-10.2-12.2-33.4-8.1-52c4.1-18.5,17.8-25.2,26.4-15c0,0,0,0,0,0.1c0.3,0.3,0.5,0.6,0.8,0.9
			C160.6,338.1,164.2,361.4,160.2,379.9z"/>
		<path fill="#3A3B73" d="M137.2,395c-8.6-10.2-12.2-33.4-8.1-52c3.9-18,13.7-24.9,22.1-16c0,0,0,0,0-0.1
			c-8.6-10.2-22.3-3.5-26.4,15c-4.1,18.5-0.4,41.8,8.1,52c3.8,4.5,10.8,7.4,14.6,5.8c0.3-0.1-0.2-0.2-0.8-0.1
			C143.6,400.1,140.3,398.7,137.2,395z"/>
	</g>
	<polygon fill="#3A3B73" stroke="#3A3B73" stroke-linecap="round" stroke-linejoin="bevel" stroke-miterlimit="10" points="
		1133.3,356.9 1102,340.1 1133.3,290.4 1133.3,290.4 	"/>
	<polygon fill="#FFFFFF" stroke="#3A3B73" stroke-linecap="round" stroke-linejoin="bevel" stroke-miterlimit="10" points="
		1133.3,356.9 1164.8,340.1 1133.3,290.4 1133.3,290.4 	"/>
	<g>
		<circle fill="#3A3B73" stroke="#3A3B73" stroke-miterlimit="10" cx="233.5" cy="360.4" r="5.1"/>
		<circle fill="#3A3B73" stroke="#3A3B73" stroke-miterlimit="10" cx="196.6" cy="360.4" r="5.1"/>
		<circle fill="#3A3B73" stroke="#3A3B73" stroke-miterlimit="10" cx="150.1" cy="360.4" r="5.1"/>
		<circle fill="#3A3B73" stroke="#3A3B73" stroke-miterlimit="10" cx="215" cy="360.4" r="5.1"/>
		<circle fill="#3A3B73" stroke="#3A3B73" stroke-miterlimit="10" cx="131.6" cy="360.4" r="5.1"/>
		<circle fill="#3A3B73" stroke="#3A3B73" stroke-miterlimit="10" cx="113.3" cy="360.4" r="5.1"/>
		<circle fill="#3A3B73" stroke="#3A3B73" stroke-miterlimit="10" cx="76.4" cy="360.4" r="5.1"/>
		<circle fill="#3A3B73" stroke="#3A3B73" stroke-miterlimit="10" cx="94.9" cy="360.4" r="5.1"/>
		<circle fill="#3A3B73" stroke="#3A3B73" stroke-miterlimit="10" cx="58" cy="360.4" r="5.1"/>
	</g>
</g>
</svg>
