<?xml version="1.0" encoding="utf-8"?>
<!-- Generator: Adobe Illustrator 18.0.0, SVG Export Plug-In . SVG Version: 6.00 Build 0)  -->
<!DOCTYPE svg PUBLIC "-//W3C//DTD SVG 1.1//EN" "http://www.w3.org/Graphics/SVG/1.1/DTD/svg11.dtd">
<svg version="1.1" id="Layer_1" xmlns="http://www.w3.org/2000/svg" xmlns:xlink="http://www.w3.org/1999/xlink" x="0px" y="0px"
	 viewBox="0 0 1194 368.1" enable-background="new 0 0 1194 368.1" xml:space="preserve">
<g>
	<path fill="#3A3B73" stroke="#3A3B73" stroke-linecap="round" stroke-linejoin="bevel" stroke-miterlimit="10" d="M380.1,12.5
		l78,40h88l-78-40C468.1,12.5,383.9,12.5,380.1,12.5z"/>
	<polygon fill="#FFFFFF" stroke="#3A3B73" stroke-linejoin="bevel" stroke-miterlimit="10" points="379,17.5 457,57.5 457,52.5 
		379,12.5 	"/>
	<rect x="457.1" y="52.5" fill="#FFFFFF" stroke="#3A3B73" stroke-linejoin="bevel" stroke-miterlimit="10" width="88" height="5"/>
	<path fill="#3A3B73" stroke="#3A3B73" stroke-linecap="round" stroke-linejoin="bevel" stroke-miterlimit="10" d="M409.5,0.5
		l50.2,25.8h56.7L466.1,0.5C466.1,0.5,411.9,0.5,409.5,0.5z"/>
	<polygon fill="#FFFFFF" stroke="#3A3B73" stroke-linejoin="bevel" stroke-miterlimit="10" points="408.8,13.7 459,39.5 459,26.3 
		408.8,0.5 	"/>
	
		<rect x="459" y="26.3" fill="#FFFFFF" stroke="#3A3B73" stroke-linejoin="bevel" stroke-miterlimit="10" width="57.4" height="13.2"/>
	<g>
		<path fill="#3A3B73" stroke="#3A3B73" stroke-linecap="round" stroke-linejoin="bevel" stroke-miterlimit="10" d="M677.2,324.5
			l22.3,11.6h65.7l-22.3-11.6C742.9,324.5,681,324.5,677.2,324.5z"/>
		<polygon fill="#FFFFFF" stroke="#3A3B73" stroke-linejoin="bevel" stroke-miterlimit="10" points="677.2,329.5 699.5,341.1 
			699.5,336.1 677.2,324.5 		"/>
		
			<rect x="699.5" y="336.1" fill="none" stroke="#3A3B73" stroke-linecap="round" stroke-linejoin="bevel" stroke-miterlimit="10" width="65.7" height="5"/>
	</g>
	<g>
		<path fill="#3A3B73" stroke="#3A3B73" stroke-linecap="round" stroke-linejoin="bevel" stroke-miterlimit="10" d="M585.2,278
			l78,40h8l-78-40C593.2,278,589,278,585.2,278z"/>
		<polygon fill="#FFFFFF" stroke="#3A3B73" stroke-linejoin="bevel" stroke-miterlimit="10" points="585.2,295 663.2,335 663.2,318 
			585.2,278 		"/>
		<rect x="663.2" y="318" fill="#FFFFFF" stroke="#3A3B73" stroke-linejoin="bevel" stroke-miterlimit="10" width="8" height="17"/>
	</g>
	<g>
		<path fill="#3A3B73" stroke="#3A3B73" stroke-linecap="round" stroke-linejoin="bevel" stroke-miterlimit="10" d="M565.2,278
			l78,40h8l-78-40C573.2,278,569,278,565.2,278z"/>
		<polygon fill="#FFFFFF" stroke="#3A3B73" stroke-linejoin="bevel" stroke-miterlimit="10" points="565.2,295 643.2,335 643.2,318 
			565.2,278 		"/>
		<rect x="643.2" y="318" fill="#FFFFFF" stroke="#3A3B73" stroke-linejoin="bevel" stroke-miterlimit="10" width="8" height="17"/>
	</g>
	<g>
		<path fill="#3A3B73" stroke="#3A3B73" stroke-linecap="round" stroke-linejoin="bevel" stroke-miterlimit="10" d="M545.2,278
			l78,40h8l-78-40C553.2,278,549,278,545.2,278z"/>
		<polygon fill="#FFFFFF" stroke="#3A3B73" stroke-linejoin="bevel" stroke-miterlimit="10" points="545.2,295 623.2,335 623.2,318 
			545.2,278 		"/>
		<rect x="623.2" y="318" fill="#FFFFFF" stroke="#3A3B73" stroke-linejoin="bevel" stroke-miterlimit="10" width="8" height="17"/>
	</g>
	<g>
		<polygon fill="#FFFFFF" stroke="#3A3B73" stroke-linecap="round" stroke-linejoin="bevel" stroke-miterlimit="10" points="
			732.9,127 690.8,104 690.8,89.3 732.9,112.4 		"/>
		<polygon fill="#FFFFFF" stroke="#3A3B73" stroke-linecap="round" stroke-linejoin="bevel" stroke-miterlimit="10" points="
			732.9,127 740.7,127 740.7,112.4 732.9,112.4 		"/>
		<polygon fill="#3A3B73" stroke="#3A3B73" stroke-linejoin="bevel" stroke-miterlimit="10" points="732.9,112.4 740.7,112.4 
			698.9,89.3 690.8,89.3 		"/>
	</g>
	<g>
		<path fill="#3A3B73" stroke="#3A3B73" stroke-linecap="round" stroke-linejoin="bevel" stroke-miterlimit="10" d="M804.7,274.2
			l24.5,12.8h32l-24.5-12.8C836.7,274.2,808.6,274.2,804.7,274.2z"/>
		<polygon fill="#FFFFFF" stroke="#3A3B73" stroke-linejoin="bevel" stroke-miterlimit="10" points="804.7,279.2 829.2,292 
			829.2,287 804.7,274.2 		"/>
		<rect x="829.2" y="287" fill="#FFFFFF" stroke="#3A3B73" stroke-linejoin="bevel" stroke-miterlimit="10" width="32" height="5"/>
	</g>
	<g>
		<path fill="#3A3B73" stroke="#3A3B73" stroke-linecap="round" stroke-linejoin="bevel" stroke-miterlimit="10" d="M804.7,264.2
			l24.5,12.8h32l-24.5-12.8C836.7,264.2,808.6,264.2,804.7,264.2z"/>
		<polygon fill="#FFFFFF" stroke="#3A3B73" stroke-linejoin="bevel" stroke-miterlimit="10" points="804.7,269.2 829.2,282 
			829.2,277 804.7,264.2 		"/>
		<rect x="829.2" y="277" fill="#FFFFFF" stroke="#3A3B73" stroke-linejoin="bevel" stroke-miterlimit="10" width="32" height="5"/>
	</g>
	<g>
		<path fill="#3A3B73" stroke="#3A3B73" stroke-linecap="round" stroke-linejoin="bevel" stroke-miterlimit="10" d="M804.7,254.2
			l24.5,12.8h32l-24.5-12.8C836.7,254.2,808.6,254.2,804.7,254.2z"/>
		<polygon fill="#FFFFFF" stroke="#3A3B73" stroke-linejoin="bevel" stroke-miterlimit="10" points="804.7,259.2 829.2,272 
			829.2,267 804.7,254.2 		"/>
		<rect x="829.2" y="267" fill="#FFFFFF" stroke="#3A3B73" stroke-linejoin="bevel" stroke-miterlimit="10" width="32" height="5"/>
	</g>
	<g>
		<path fill="#3A3B73" stroke="#3A3B73" stroke-linecap="round" stroke-linejoin="bevel" stroke-miterlimit="10" d="M804.7,244.2
			l24.5,12.8h32l-24.5-12.8C836.7,244.2,808.6,244.2,804.7,244.2z"/>
		<polygon fill="#FFFFFF" stroke="#3A3B73" stroke-linejoin="bevel" stroke-miterlimit="10" points="804.7,249.2 829.2,262 
			829.2,257 804.7,244.2 		"/>
		<rect x="829.2" y="257" fill="#FFFFFF" stroke="#3A3B73" stroke-linejoin="bevel" stroke-miterlimit="10" width="32" height="5"/>
	</g>
	<g>
		<polygon fill="#FFFFFF" stroke="#3A3B73" stroke-linecap="round" stroke-linejoin="bevel" stroke-miterlimit="10" points="
			570.7,148.1 546,135 546,87 570.7,100.1 		"/>
		<polygon fill="#FFFFFF" stroke="#3A3B73" stroke-linejoin="bevel" stroke-miterlimit="10" points="570.7,148.1 618.8,148.1 
			618.8,100.1 570.7,100.1 		"/>
		<polygon fill="#3A3B73" stroke="#3A3B73" stroke-linejoin="bevel" stroke-miterlimit="10" points="570.7,100.1 618.8,100.1 
			594.4,87 546,87 		"/>
	</g>
	<g>
		<polygon fill="none" stroke="#3A3B73" stroke-linecap="round" stroke-linejoin="bevel" stroke-miterlimit="10" points="540.4,183 
			497.8,160.5 497.8,87 540.4,109.6 		"/>
		<polygon fill="#FFFFFF" stroke="#3A3B73" stroke-linejoin="bevel" stroke-miterlimit="10" points="540.4,183 588.5,183 
			588.5,109.6 540.4,109.6 		"/>
		<polygon fill="#3A3B73" stroke="#3A3B73" stroke-linejoin="bevel" stroke-miterlimit="10" points="540.4,109.6 588.5,109.6 
			546.3,87 497.9,87 		"/>
	</g>
	<g>
		<polygon fill="#FFFFFF" stroke="#3A3B73" stroke-linecap="round" stroke-linejoin="bevel" stroke-miterlimit="10" points="
			601.6,98.8 579.7,87 579.7,67 601.6,78.9 		"/>
		<polygon fill="#FFFFFF" stroke="#3A3B73" stroke-linecap="round" stroke-linejoin="bevel" stroke-miterlimit="10" points="
			601.6,98.8 731.6,98.8 731.6,78.9 601.6,78.9 		"/>
		<polygon fill="#3A3B73" stroke="#3A3B73" stroke-linejoin="bevel" stroke-miterlimit="10" points="601.6,78.9 731.6,78.9 
			710.1,67 579.8,67 		"/>
	</g>
	<g>
		<polygon fill="#FFFFFF" stroke="#3A3B73" stroke-linecap="round" stroke-linejoin="bevel" stroke-miterlimit="10" points="
			715.3,214.9 675.6,193.5 675.6,105.5 715.3,126.9 		"/>
		<polygon fill="#FFFFFF" stroke="#3A3B73" stroke-linecap="round" stroke-linejoin="bevel" stroke-miterlimit="10" points="
			715.3,214.9 732.9,214.9 732.9,127 715.3,126.9 		"/>
		<polygon fill="#3A3B73" stroke="#3A3B73" stroke-linejoin="bevel" stroke-miterlimit="10" points="715.3,126.9 732.9,127 
			693.5,105.5 675.6,105.5 		"/>
	</g>
	<g>
		<polygon fill="#FFFFFF" stroke="#3A3B73" stroke-linecap="round" stroke-linejoin="bevel" stroke-miterlimit="10" points="
			669.6,194.6 655.7,187.1 655.7,99.1 669.6,106.6 		"/>
		<polygon fill="#FFFFFF" stroke="#3A3B73" stroke-linecap="round" stroke-linejoin="bevel" stroke-miterlimit="10" points="
			669.6,194.6 706.2,194.6 706.2,106.6 669.6,106.6 		"/>
		<polygon fill="#3A3B73" stroke="#3A3B73" stroke-linejoin="bevel" stroke-miterlimit="10" points="669.6,106.6 706.2,106.6 
			692.6,99.1 655.7,99.1 		"/>
	</g>
	<g>
		<polygon fill="#FFFFFF" stroke="#3A3B73" stroke-linecap="round" stroke-linejoin="bevel" stroke-miterlimit="10" points="
			632.7,155.6 618.8,148.1 618.8,128.1 632.7,135.6 		"/>
		<polygon fill="#FFFFFF" stroke="#3A3B73" stroke-linecap="round" stroke-linejoin="bevel" stroke-miterlimit="10" points="
			632.7,155.6 669.3,155.6 669.3,135.6 632.7,135.6 		"/>
		<polygon fill="#3A3B73" stroke="#3A3B73" stroke-linejoin="bevel" stroke-miterlimit="10" points="632.7,135.6 669.3,135.6 
			655.7,128.1 618.8,128.1 		"/>
	</g>
	<g>
		<polygon fill="#FFFFFF" stroke="#3A3B73" stroke-linecap="round" stroke-linejoin="bevel" stroke-miterlimit="10" points="
			454.5,139.6 449.7,137.1 449.7,107.1 454.5,109.6 		"/>
		<polygon fill="#FFFFFF" stroke="#3A3B73" stroke-linecap="round" stroke-linejoin="bevel" stroke-miterlimit="10" points="
			454.5,139.6 502.7,139.6 502.7,109.6 454.5,109.6 		"/>
		<polygon fill="#3A3B73" stroke="#3A3B73" stroke-linejoin="bevel" stroke-miterlimit="10" points="454.5,109.6 502.7,109.6 
			498.2,107.1 449.8,107.1 		"/>
	</g>
	<g>
		<polygon fill="#FFFFFF" stroke="#3A3B73" stroke-linecap="round" stroke-linejoin="bevel" stroke-miterlimit="10" points="
			504.5,188.7 449.7,159.6 449.7,149.6 504.5,178.7 		"/>
		<polygon fill="#FFFFFF" stroke="#3A3B73" stroke-linecap="round" stroke-linejoin="bevel" stroke-miterlimit="10" points="
			504.5,188.7 552.6,188.7 552.6,178.8 504.5,178.7 		"/>
		<polygon fill="#3A3B73" stroke="#3A3B73" stroke-linejoin="bevel" stroke-miterlimit="10" points="504.5,178.7 552.6,178.8 
			498.2,149.6 449.8,149.6 		"/>
	</g>
	<g>
		<polygon fill="#FFFFFF" stroke="#3A3B73" stroke-linecap="round" stroke-linejoin="bevel" stroke-miterlimit="10" points="
			476.1,121 449.7,107 449.7,87 476.1,101 		"/>
		<polygon fill="#FFFFFF" stroke="#3A3B73" stroke-linecap="round" stroke-linejoin="bevel" stroke-miterlimit="10" points="
			476.1,121 524.2,121 524.2,101 476.1,101 		"/>
		<polygon fill="#3A3B73" stroke="#3A3B73" stroke-linejoin="bevel" stroke-miterlimit="10" points="476.1,101 524.2,101 498.2,87 
			449.8,87 		"/>
	</g>
	<circle fill="#3A3B73" stroke="#3A3B73" stroke-linejoin="bevel" stroke-miterlimit="10" cx="852.2" cy="189.2" r="7.5"/>
	<circle fill="#3A3B73" stroke="#3A3B73" stroke-linejoin="bevel" stroke-miterlimit="10" cx="895.2" cy="36.2" r="7.5"/>
	<circle fill="#3A3B73" stroke="#3A3B73" stroke-linejoin="bevel" stroke-miterlimit="10" cx="925.2" cy="36.2" r="7.5"/>
	<circle fill="#3A3B73" stroke="#3A3B73" stroke-linejoin="bevel" stroke-miterlimit="10" cx="956.2" cy="36.2" r="7.5"/>
	<path fill="#3A3B73" d="M520.1,133.7c-1.5,8.9,0.8,19.8,5.1,24.4s9,1.2,10.5-7.7c1.5-8.9-0.8-19.8-5.1-24.4
		C526.3,121.4,521.6,124.9,520.1,133.7z"/>
	<path fill="#FFFFFF" stroke="#3A3B73" stroke-miterlimit="10" d="M523.5,137.3c-0.8,5,0.5,11.3,2.9,13.9c2.4,2.6,5.1,0.7,6-4.4
		c0.8-5-0.5-11.3-2.9-13.9C527,130.3,524.3,132.3,523.5,137.3z"/>
	<path fill="#FFFFFF" stroke="#3A3B73" stroke-miterlimit="10" d="M519.4,137.3c-0.8,5,0.5,11.3,2.9,13.9c2.4,2.6,5.1,0.7,6-4.4
		c0.8-5-0.5-11.3-2.9-13.9C522.9,130.3,520.3,132.3,519.4,137.3z"/>
	<path fill="#FFFFFF" stroke="#3A3B73" stroke-miterlimit="10" d="M515.4,137.3c-0.8,5,0.5,11.3,2.9,13.9c2.4,2.6,5.1,0.7,6-4.4
		c0.8-5-0.5-11.3-2.9-13.9C518.9,130.3,516.2,132.3,515.4,137.3z"/>
	<path fill="#FFFFFF" stroke="#3A3B73" stroke-miterlimit="10" d="M511.3,137.3c-0.8,5,0.5,11.3,2.9,13.9c2.4,2.6,5.1,0.7,6-4.4
		c0.8-5-0.5-11.3-2.9-13.9C514.8,130.3,512.2,132.3,511.3,137.3z"/>
	<path fill="#FFFFFF" stroke="#3A3B73" stroke-miterlimit="10" d="M507.3,137.3c-0.8,5,0.5,11.3,2.9,13.9c2.4,2.6,5.1,0.7,6-4.4
		c0.8-5-0.5-11.3-2.9-13.9C510.8,130.3,508.1,132.3,507.3,137.3z"/>
	<path fill="#FFFFFF" stroke="#3A3B73" stroke-miterlimit="10" d="M503.2,137.3c-0.8,5,0.5,11.3,2.9,13.9c2.4,2.6,5.1,0.7,6-4.4
		c0.8-5-0.5-11.3-2.9-13.9C506.7,130.3,504.1,132.3,503.2,137.3z"/>
	<path fill="#FFFFFF" stroke="#3A3B73" stroke-miterlimit="10" d="M499.2,137.3c-0.8,5,0.5,11.3,2.9,13.9c2.4,2.6,5.1,0.7,6-4.4
		c0.8-5-0.5-11.3-2.9-13.9C502.7,130.3,500,132.3,499.2,137.3z"/>
	<path fill="#FFFFFF" stroke="#3A3B73" stroke-miterlimit="10" d="M495.1,137.3c-0.8,5,0.5,11.3,2.9,13.9s5.1,0.7,6-4.4
		c0.8-5-0.5-11.3-2.9-13.9C498.7,130.3,496,132.3,495.1,137.3z"/>
	<path fill="#3A3B73" stroke="#3A3B73" stroke-miterlimit="10" d="M492.9,139.3c-0.5,3,0.3,6.7,1.7,8.2c1.4,1.6,3,0.4,3.5-2.6
		c0.5-3-0.3-6.7-1.7-8.2S493.4,136.3,492.9,139.3z"/>
	<g>
		<polygon fill="none" stroke="#3A3B73" stroke-linecap="round" stroke-linejoin="bevel" stroke-miterlimit="10" points="805,174.5 
			732.7,136.4 732.7,127.2 804.9,165.3 		"/>
		
			<rect x="805.2" y="165.4" fill="#3A3B73" stroke="#3A3B73" stroke-linejoin="bevel" stroke-miterlimit="10" width="59.8" height="9.2"/>
		<polygon fill="#FFFFFF" stroke="#3A3B73" stroke-linejoin="bevel" stroke-miterlimit="10" points="805.2,165.3 865,165.3 
			792.9,127.2 733.2,127.2 		"/>
	</g>
	<g>
		<polygon fill="none" stroke="#3A3B73" stroke-linecap="round" stroke-linejoin="bevel" stroke-miterlimit="10" points="
			891.7,175.5 819.7,137.4 819.7,128.2 891.8,166.3 		"/>
		
			<rect x="891.7" y="166.4" fill="#3A3B73" stroke="#3A3B73" stroke-linejoin="bevel" stroke-miterlimit="10" width="301.8" height="9.2"/>
		<polygon fill="#FFFFFF" stroke="#3A3B73" stroke-linejoin="bevel" stroke-miterlimit="10" points="891.7,166.3 1193.5,166.3 
			1121.4,128.2 819.6,128.2 		"/>
	</g>
	<g>
		<path fill="#3A3B73" stroke="#3A3B73" stroke-linejoin="bevel" stroke-miterlimit="10" d="M852.5,166c0-10,8.8-19.7,19.6-19.7
			c10.8,0,19.6,9.7,19.6,19.7h12c0-17-14.1-31.7-31.6-31.7S840.5,149,840.5,166H852.5z"/>
		<path fill="#FFFFFF" stroke="#3A3B73" stroke-linejoin="bevel" stroke-miterlimit="10" d="M864.7,166c0-10,8.8-19.7,19.6-19.7
			s19.6,9.7,19.6,19.7h12c0-17-14.1-31.7-31.6-31.7S852.7,149,852.7,166H864.7z"/>
	</g>
	<g>
		<polygon fill="#FFFFFF" stroke="#3A3B73" stroke-linecap="round" stroke-linejoin="bevel" stroke-miterlimit="10" points="
			904.7,277 870.1,259.5 870.1,182.6 904.7,200.2 		"/>
		<polygon fill="#FFFFFF" stroke="#3A3B73" stroke-linecap="round" stroke-linejoin="bevel" stroke-miterlimit="10" points="
			904.7,277 1122.7,277 1122.7,200.2 904.7,200.2 		"/>
		<polygon fill="#3A3B73" stroke="#3A3B73" stroke-linejoin="bevel" stroke-miterlimit="10" points="904.7,200.2 1122.7,200.2 
			1088.5,182.6 870.2,182.6 		"/>
	</g>
	<g>
		<polygon fill="#FFFFFF" stroke="#3A3B73" stroke-linecap="round" stroke-linejoin="bevel" stroke-miterlimit="10" points="
			464.7,95 449.7,87 449.7,67 464.7,75 		"/>
		<polygon fill="#FFFFFF" stroke="#3A3B73" stroke-linecap="round" stroke-linejoin="bevel" stroke-miterlimit="10" points="
			464.7,95 594.7,95 594.7,75 464.7,75 		"/>
		<polygon fill="#3A3B73" stroke="#3A3B73" stroke-linejoin="bevel" stroke-miterlimit="10" points="464.7,75 594.7,75 580.1,67 
			449.8,67 		"/>
	</g>
	<g>
		<polygon fill="#FFFFFF" stroke="#3A3B73" stroke-linecap="round" stroke-linejoin="bevel" stroke-miterlimit="10" points="
			470.7,279.6 428.7,256.6 428.7,242 470.7,265 		"/>
		<polygon fill="#FFFFFF" stroke="#3A3B73" stroke-linecap="round" stroke-linejoin="bevel" stroke-miterlimit="10" points="
			470.7,279.6 478.6,279.6 478.6,265 470.7,265 		"/>
		<polygon fill="#3A3B73" stroke="#3A3B73" stroke-linejoin="bevel" stroke-miterlimit="10" points="470.7,265 478.6,265 436.8,242 
			428.7,242 		"/>
	</g>
	<g>
		<polygon fill="#FFFFFF" stroke="#3A3B73" stroke-linecap="round" stroke-linejoin="bevel" stroke-miterlimit="10" points="
			308.5,300.7 283.8,287.7 283.8,239.7 308.5,252.8 		"/>
		<polygon fill="#FFFFFF" stroke="#3A3B73" stroke-linejoin="bevel" stroke-miterlimit="10" points="308.5,300.7 356.7,300.7 
			356.7,252.8 308.5,252.8 		"/>
		<polygon fill="#3A3B73" stroke="#3A3B73" stroke-linejoin="bevel" stroke-miterlimit="10" points="308.5,252.8 356.7,252.8 
			332.3,239.7 283.9,239.7 		"/>
	</g>
	<g>
		<polygon fill="none" stroke="#3A3B73" stroke-linecap="round" stroke-linejoin="bevel" stroke-miterlimit="10" points="
			278.3,335.6 235.7,313.1 235.7,239.7 278.3,262.2 		"/>
		<polygon fill="#FFFFFF" stroke="#3A3B73" stroke-linejoin="bevel" stroke-miterlimit="10" points="278.3,335.6 326.4,335.6 
			326.4,262.2 278.3,262.2 		"/>
		<polygon fill="#3A3B73" stroke="#3A3B73" stroke-linejoin="bevel" stroke-miterlimit="10" points="278.3,262.2 326.4,262.2 
			284.2,239.7 235.8,239.7 		"/>
	</g>
	<g>
		<polygon fill="#FFFFFF" stroke="#3A3B73" stroke-linecap="round" stroke-linejoin="bevel" stroke-miterlimit="10" points="
			339.5,251.5 270.2,213.9 270.2,132.9 339.5,170.5 		"/>
		<polygon fill="#FFFFFF" stroke="#3A3B73" stroke-linecap="round" stroke-linejoin="bevel" stroke-miterlimit="10" points="
			339.5,251.5 469.5,251.5 469.5,170.5 339.5,170.5 		"/>
		<polygon fill="#3A3B73" stroke="#3A3B73" stroke-linejoin="bevel" stroke-miterlimit="10" points="339.5,170.5 469.5,170.5 
			400.5,132.9 270.2,132.9 		"/>
	</g>
	<g>
		<polygon fill="#FFFFFF" stroke="#3A3B73" stroke-linecap="round" stroke-linejoin="bevel" stroke-miterlimit="10" points="
			339.5,153.5 270.2,115.9 270.2,28.9 339.5,66.5 		"/>
		<polygon fill="#FFFFFF" stroke="#3A3B73" stroke-linecap="round" stroke-linejoin="bevel" stroke-miterlimit="10" points="
			339.5,153.5 449.5,153.5 449.5,66.5 339.5,66.5 		"/>
		<polygon fill="#3A3B73" stroke="#3A3B73" stroke-linejoin="bevel" stroke-miterlimit="10" points="339.5,66.5 449.5,66.5 
			380.5,28.9 270.2,28.9 		"/>
	</g>
	<g>
		<polygon fill="#FFFFFF" stroke="#3A3B73" stroke-linecap="round" stroke-linejoin="bevel" stroke-miterlimit="10" points="
			453.2,367.6 413.5,346.1 413.5,258.1 453.2,279.6 		"/>
		<polygon fill="#FFFFFF" stroke="#3A3B73" stroke-linecap="round" stroke-linejoin="bevel" stroke-miterlimit="10" points="
			453.2,367.6 470.7,367.6 470.7,279.6 453.2,279.6 		"/>
		<polygon fill="#3A3B73" stroke="#3A3B73" stroke-linejoin="bevel" stroke-miterlimit="10" points="453.2,279.6 470.7,279.6 
			431.4,258.1 413.5,258.1 		"/>
	</g>
	<g>
		<polygon fill="#FFFFFF" stroke="#3A3B73" stroke-linecap="round" stroke-linejoin="bevel" stroke-miterlimit="10" points="
			407.5,347.2 393.6,339.7 393.6,251.7 407.5,259.3 		"/>
		<polygon fill="#FFFFFF" stroke="#3A3B73" stroke-linecap="round" stroke-linejoin="bevel" stroke-miterlimit="10" points="
			407.5,347.2 444.1,347.2 444.1,259.3 407.5,259.3 		"/>
		<polygon fill="#3A3B73" stroke="#3A3B73" stroke-linejoin="bevel" stroke-miterlimit="10" points="407.5,259.3 444.1,259.3 
			430.5,251.7 393.6,251.7 		"/>
	</g>
	<g>
		<polygon fill="#FFFFFF" stroke="#3A3B73" stroke-linecap="round" stroke-linejoin="bevel" stroke-miterlimit="10" points="
			370.6,308.2 356.7,300.7 356.7,280.7 370.6,288.3 		"/>
		<polygon fill="#FFFFFF" stroke="#3A3B73" stroke-linecap="round" stroke-linejoin="bevel" stroke-miterlimit="10" points="
			370.6,308.2 407.2,308.2 407.2,288.3 370.6,288.3 		"/>
		<polygon fill="#3A3B73" stroke="#3A3B73" stroke-linejoin="bevel" stroke-miterlimit="10" points="370.6,288.3 407.2,288.3 
			393.6,280.7 356.7,280.7 		"/>
	</g>
	<g>
		<polygon fill="#FFFFFF" stroke="#3A3B73" stroke-linecap="round" stroke-linejoin="bevel" stroke-miterlimit="10" points="
			32.4,292.2 0.5,276 0.5,246 32.4,262.2 		"/>
		<polygon fill="#FFFFFF" stroke="#3A3B73" stroke-linecap="round" stroke-linejoin="bevel" stroke-miterlimit="10" points="
			32.4,292.2 240.5,292.2 240.5,262.2 32.4,262.2 		"/>
		<polygon fill="#3A3B73" stroke="#3A3B73" stroke-linejoin="bevel" stroke-miterlimit="10" points="32.4,262.2 240.5,262.2 
			209,246 0.5,246 		"/>
	</g>
	<g>
		<polygon fill="#FFFFFF" stroke="#3A3B73" stroke-linecap="round" stroke-linejoin="bevel" stroke-miterlimit="10" points="
			242.3,341.4 187.6,312.2 187.6,302.2 242.3,331.4 		"/>
		<polygon fill="#FFFFFF" stroke="#3A3B73" stroke-linecap="round" stroke-linejoin="bevel" stroke-miterlimit="10" points="
			242.3,341.4 290.5,341.4 290.5,331.4 242.3,331.4 		"/>
		<polygon fill="#3A3B73" stroke="#3A3B73" stroke-linejoin="bevel" stroke-miterlimit="10" points="242.3,331.4 290.5,331.4 
			236,302.2 187.6,302.2 		"/>
	</g>
	<g>
		<polygon fill="#FFFFFF" stroke="#3A3B73" stroke-linecap="round" stroke-linejoin="bevel" stroke-miterlimit="10" points="
			214,273.6 187.6,259.7 187.6,239.7 214,253.7 		"/>
		<polygon fill="#FFFFFF" stroke="#3A3B73" stroke-linecap="round" stroke-linejoin="bevel" stroke-miterlimit="10" points="
			214,273.6 262.1,273.6 262.1,253.7 214,253.7 		"/>
		<polygon fill="#3A3B73" stroke="#3A3B73" stroke-linejoin="bevel" stroke-miterlimit="10" points="214,253.7 262.1,253.7 
			236,239.7 187.6,239.7 		"/>
	</g>
	<g>
		<polygon fill="#FFFFFF" stroke="#3A3B73" stroke-linecap="round" stroke-linejoin="bevel" stroke-miterlimit="10" points="
			202.6,247.6 187.6,239.7 187.6,219.7 202.6,227.7 		"/>
		<polygon fill="#FFFFFF" stroke="#3A3B73" stroke-linecap="round" stroke-linejoin="bevel" stroke-miterlimit="10" points="
			202.6,247.6 332.6,247.6 332.6,227.7 202.6,227.7 		"/>
		<polygon fill="#3A3B73" stroke="#3A3B73" stroke-linejoin="bevel" stroke-miterlimit="10" points="202.6,227.7 332.6,227.7 
			317.9,219.7 187.6,219.7 		"/>
	</g>
	<g>
		<polygon fill="#FFFFFF" stroke="#3A3B73" stroke-linecap="round" stroke-linejoin="bevel" stroke-miterlimit="10" points="
			417.4,229.7 375.2,206.3 375.2,186.3 417.4,209.7 		"/>
		<polygon fill="#FFFFFF" stroke="#3A3B73" stroke-linecap="round" stroke-linejoin="bevel" stroke-miterlimit="10" points="
			417.4,229.7 524,229.7 524,209.7 417.4,209.7 		"/>
		<polygon fill="#3A3B73" stroke="#3A3B73" stroke-linejoin="bevel" stroke-miterlimit="10" points="417.4,209.7 524,209.7 
			482.1,186.3 375.2,186.3 		"/>
	</g>
	<polyline fill="none" stroke="#3A3B73" stroke-linecap="round" stroke-linejoin="bevel" stroke-miterlimit="10" points="
		949.5,350.6 912.8,350.8 854.7,319.8 854.7,310.5 	"/>
	<rect x="913.7" y="342.6" fill="#3A3B73" stroke="#3A3B73" stroke-miterlimit="10" width="36.1" height="8.3"/>
	<polygon fill="#FFFFFF" stroke="#3A3B73" stroke-linejoin="bevel" stroke-miterlimit="10" points="949.7,342.1 891.8,311 
		855.1,311 913.1,342.1 	"/>
	<polyline fill="none" stroke="#3A3B73" stroke-linecap="round" stroke-linejoin="bevel" stroke-miterlimit="10" points="
		985.5,341.6 948.8,341.8 890.7,310.8 890.7,301.5 	"/>
	<rect x="949.7" y="333.6" fill="#3A3B73" stroke="#3A3B73" stroke-miterlimit="10" width="36.1" height="8.3"/>
	<polygon fill="#FFFFFF" stroke="#3A3B73" stroke-linejoin="bevel" stroke-miterlimit="10" points="985.7,333.1 927.8,302 
		891.1,302 949.1,333.1 	"/>
	<polyline fill="none" stroke="#3A3B73" stroke-linecap="round" stroke-linejoin="bevel" stroke-miterlimit="10" points="
		1021.5,332.6 984.8,332.8 926.7,301.8 926.7,292.5 	"/>
	<rect x="985.7" y="324.6" fill="#3A3B73" stroke="#3A3B73" stroke-miterlimit="10" width="36.1" height="8.3"/>
	<polygon fill="#FFFFFF" stroke="#3A3B73" stroke-linejoin="bevel" stroke-miterlimit="10" points="1021.7,324.1 963.8,293 
		927.1,293 985.1,324.1 	"/>
	<polyline fill="none" stroke="#3A3B73" stroke-linecap="round" stroke-linejoin="bevel" stroke-miterlimit="10" points="
		1058.5,323.6 1021.8,323.8 963.7,292.8 963.7,283.5 	"/>
	<rect x="1022.7" y="315.6" fill="#3A3B73" stroke="#3A3B73" stroke-miterlimit="10" width="36.1" height="8.3"/>
	<polygon fill="#FFFFFF" stroke="#3A3B73" stroke-linejoin="bevel" stroke-miterlimit="10" points="1058.7,315.1 1000.8,284 
		964.1,284 1022.1,315.1 	"/>
	<polyline fill="none" stroke="#3A3B73" stroke-linecap="round" stroke-linejoin="bevel" stroke-miterlimit="10" points="
		1094.5,314.6 1057.8,314.8 999.7,283.8 999.7,274.5 	"/>
	<rect x="1058.7" y="306.6" fill="#3A3B73" stroke="#3A3B73" stroke-miterlimit="10" width="36.1" height="8.3"/>
	<polygon fill="#FFFFFF" stroke="#3A3B73" stroke-linejoin="bevel" stroke-miterlimit="10" points="1094.7,306.1 1036.8,275 
		1000.1,275 1058.1,306.1 	"/>
	<polyline fill="none" stroke="#3A3B73" stroke-linecap="round" stroke-linejoin="bevel" stroke-miterlimit="10" points="
		913.2,341.4 876.6,341.4 818.7,310.3 818.7,301.5 	"/>
	<rect x="877" y="333" fill="#3A3B73" stroke="#3A3B73" stroke-miterlimit="10" width="36.1" height="8.3"/>
	<polygon fill="#FFFFFF" stroke="#3A3B73" stroke-linejoin="bevel" stroke-miterlimit="10" points="913,332.6 855.1,301.5 
		818.4,301.5 876.4,332.6 	"/>
	<polyline fill="none" stroke="#3A3B73" stroke-linecap="round" stroke-linejoin="bevel" stroke-miterlimit="10" points="
		876.7,332.5 839.9,332.5 781.7,301.5 781.7,292.5 	"/>
	<rect x="841" y="324.2" fill="#3A3B73" stroke="#3A3B73" stroke-miterlimit="10" width="36.1" height="8.3"/>
	<polygon fill="#FFFFFF" stroke="#3A3B73" stroke-linejoin="bevel" stroke-miterlimit="10" points="877,323.7 819.2,292.7 
		782.5,292.7 840.5,323.7 	"/>
	<polyline fill="none" stroke="#3A3B73" stroke-linecap="round" stroke-linejoin="bevel" stroke-miterlimit="10" points="
		839.8,322.7 803,322.9 744.7,291.9 744.7,282.5 	"/>
	<rect x="804.3" y="314.7" fill="#3A3B73" stroke="#3A3B73" stroke-miterlimit="10" width="36.1" height="8.3"/>
	<polygon fill="#FFFFFF" stroke="#3A3B73" stroke-linejoin="bevel" stroke-miterlimit="10" points="840.3,314.2 782.5,283.1 
		745.8,283.1 803.8,314.2 	"/>
	<polyline fill="none" stroke="#3A3B73" stroke-linecap="round" stroke-linejoin="bevel" stroke-miterlimit="10" points="
		803.5,313.6 766.8,313.8 708.7,282.8 708.7,273.5 	"/>
	<rect x="767.7" y="305.6" fill="#3A3B73" stroke="#3A3B73" stroke-miterlimit="10" width="36.1" height="8.3"/>
	<polygon fill="#FFFFFF" stroke="#3A3B73" stroke-linejoin="bevel" stroke-miterlimit="10" points="803.7,305.1 745.8,274 
		709.1,274 767.1,305.1 	"/>
	<polyline fill="none" stroke="#3A3B73" stroke-linecap="round" stroke-linejoin="bevel" stroke-miterlimit="10" points="
		767.2,304.4 730.6,304.4 672.7,273.3 672.7,264.5 	"/>
	<rect x="731" y="296" fill="#3A3B73" stroke="#3A3B73" stroke-miterlimit="10" width="36.1" height="8.3"/>
	<polygon fill="#FFFFFF" stroke="#3A3B73" stroke-linejoin="bevel" stroke-miterlimit="10" points="767,295.6 709.1,264.5 
		672.4,264.5 730.4,295.6 	"/>
	<polyline fill="none" stroke="#3A3B73" stroke-linecap="round" stroke-linejoin="bevel" stroke-miterlimit="10" points="
		730.7,295.5 693.9,295.5 635.7,264.5 635.7,255.5 	"/>
	<rect x="695" y="287.2" fill="#3A3B73" stroke="#3A3B73" stroke-miterlimit="10" width="36.1" height="8.3"/>
	<polygon fill="#FFFFFF" stroke="#3A3B73" stroke-linejoin="bevel" stroke-miterlimit="10" points="731,286.7 673.2,255.7 
		636.5,255.7 694.5,286.7 	"/>
	<polyline fill="none" stroke="#3A3B73" stroke-linecap="round" stroke-linejoin="bevel" stroke-miterlimit="10" points="
		693.8,285.7 527,285.9 468.7,254.9 468.7,245.5 	"/>
	
		<rect x="528.3" y="277.7" fill="#3A3B73" stroke="#3A3B73" stroke-linecap="round" stroke-linejoin="bevel" stroke-miterlimit="10" width="166.1" height="8.3"/>
	<polygon fill="#FFFFFF" stroke="#3A3B73" stroke-linejoin="bevel" stroke-miterlimit="10" points="694.3,277.2 636.5,246.1 
		469.8,246.1 527.8,277.2 	"/>
	<path fill="#3A3B73" stroke="#3A3B73" stroke-linecap="round" stroke-linejoin="bevel" stroke-miterlimit="10" d="M500.2,309.8
		l25.2,12.8h5.7l-25.2-12.8C505.8,309.8,504,309.8,500.2,309.8z"/>
	<polygon fill="#FFFFFF" stroke="#3A3B73" stroke-linejoin="bevel" stroke-miterlimit="10" points="500.1,320.8 525.3,333.7 
		525.3,322.7 500.1,309.8 	"/>
	
		<rect x="525.4" y="322.7" fill="none" stroke="#3A3B73" stroke-linecap="round" stroke-linejoin="bevel" stroke-miterlimit="10" width="5.7" height="11"/>
	<path fill="#3A3B73" stroke="#3A3B73" stroke-linecap="round" stroke-linejoin="bevel" stroke-miterlimit="10" d="M487.2,290l78,40
		h18l-78-40C505.2,290,491,290,487.2,290z"/>
	<polygon fill="#FFFFFF" stroke="#3A3B73" stroke-linejoin="bevel" stroke-miterlimit="10" points="487.2,295 565.2,335 565.2,330 
		487.2,290 	"/>
	<rect x="565.2" y="330" fill="#FFFFFF" stroke="#3A3B73" stroke-linejoin="bevel" stroke-miterlimit="10" width="18" height="5"/>
	<g>
		<path fill="#3A3B73" stroke="#3A3B73" stroke-linecap="round" stroke-linejoin="bevel" stroke-miterlimit="10" d="M804.7,234.2
			l24.5,12.8h32l-24.5-12.8C836.7,234.2,808.6,234.2,804.7,234.2z"/>
		<polygon fill="#FFFFFF" stroke="#3A3B73" stroke-linejoin="bevel" stroke-miterlimit="10" points="804.7,239.2 829.2,252 
			829.2,247 804.7,234.2 		"/>
		<rect x="829.2" y="247" fill="#FFFFFF" stroke="#3A3B73" stroke-linejoin="bevel" stroke-miterlimit="10" width="32" height="5"/>
	</g>
	<path fill="#3A3B73" stroke="#3A3B73" stroke-linecap="round" stroke-linejoin="bevel" stroke-miterlimit="10" d="M487.2,324.5
		l64.5,33.1h5.7l-64.5-33.1C492.9,324.5,491,324.5,487.2,324.5z"/>
	<polygon fill="#FFFFFF" stroke="#3A3B73" stroke-linejoin="bevel" stroke-miterlimit="10" points="487.2,329.5 551.7,362.6 
		551.7,357.6 487.2,324.5 	"/>
	
		<rect x="551.7" y="357.6" fill="none" stroke="#3A3B73" stroke-linecap="round" stroke-linejoin="bevel" stroke-miterlimit="10" width="5.7" height="5"/>
	<path fill="#3A3B73" stroke="#3A3B73" stroke-linecap="round" stroke-linejoin="bevel" stroke-miterlimit="10" d="M501,2.3
		l25.2,12.8h5.7L506.7,2.3C506.7,2.3,504.9,2.3,501,2.3z"/>
	<polygon fill="#FFFFFF" stroke="#3A3B73" stroke-linejoin="bevel" stroke-miterlimit="10" points="501,13.3 526.2,26.2 526.2,15.2 
		501,2.3 	"/>
	
		<rect x="526.3" y="15.2" fill="none" stroke="#3A3B73" stroke-linecap="round" stroke-linejoin="bevel" stroke-miterlimit="10" width="5.7" height="11"/>
	<g>
		<path fill="#3A3B73" stroke="#3A3B73" stroke-linecap="round" stroke-linejoin="bevel" stroke-miterlimit="10" d="M183.1,5
			l64.5,33.1h5.7L188.8,5C188.8,5,186.9,5,183.1,5z"/>
		<polygon fill="#FFFFFF" stroke="#3A3B73" stroke-linejoin="bevel" stroke-miterlimit="10" points="183,10 247.5,43.1 247.5,38.1 
			183,5 		"/>
		
			<rect x="247.6" y="38.1" fill="#FFFFFF" stroke="#3A3B73" stroke-linecap="round" stroke-linejoin="bevel" stroke-miterlimit="10" width="5.7" height="5"/>
	</g>
	<g>
		<path fill="#3A3B73" stroke="#3A3B73" stroke-linecap="round" stroke-linejoin="bevel" stroke-miterlimit="10" d="M361,84.9
			l64.5,33.1h5.7l-64.5-33.1C366.6,84.9,364.8,84.9,361,84.9z"/>
		<polygon fill="#FFFFFF" stroke="#3A3B73" stroke-linejoin="bevel" stroke-miterlimit="10" points="360.9,89.9 425.4,123.1 
			425.4,118.1 360.9,84.9 		"/>
		
			<rect x="425.5" y="118.1" fill="#FFFFFF" stroke="#3A3B73" stroke-linecap="round" stroke-linejoin="bevel" stroke-miterlimit="10" width="5.7" height="5"/>
	</g>
	<g>
		<path fill="#3A3B73" stroke="#3A3B73" stroke-linecap="round" stroke-linejoin="bevel" stroke-miterlimit="10" d="M348.7,98.5
			l32.3,16.6h15.7l-32.3-16.6C364.3,98.5,352.5,98.5,348.7,98.5z"/>
		<polygon fill="#FFFFFF" stroke="#3A3B73" stroke-linejoin="bevel" stroke-miterlimit="10" points="348.6,103.5 380.9,120.1 
			380.9,115.1 348.6,98.5 		"/>
		
			<rect x="380.9" y="115.1" fill="#FFFFFF" stroke="#3A3B73" stroke-linecap="round" stroke-linejoin="bevel" stroke-miterlimit="10" width="15.7" height="5"/>
	</g>
	<g>
		<path fill="#3A3B73" stroke="#3A3B73" stroke-linecap="round" stroke-linejoin="bevel" stroke-miterlimit="10" d="M558.1,135.1
			l64.5,33.1h5.7l-64.5-33.1C563.7,135.1,561.9,135.1,558.1,135.1z"/>
		<polygon fill="#FFFFFF" stroke="#3A3B73" stroke-linejoin="bevel" stroke-miterlimit="10" points="558,140.1 622.5,173.2 
			622.5,168.2 558,135.1 		"/>
		
			<rect x="622.6" y="168.2" fill="#FFFFFF" stroke="#3A3B73" stroke-linecap="round" stroke-linejoin="bevel" stroke-miterlimit="10" width="5.7" height="5"/>
	</g>
	<g>
		<path fill="#3A3B73" stroke="#3A3B73" stroke-linecap="round" stroke-linejoin="bevel" stroke-miterlimit="10" d="M545.8,151.7
			l32.3,16.6h15.7l-32.3-16.6C561.4,151.7,549.6,151.7,545.8,151.7z"/>
		<polygon fill="#FFFFFF" stroke="#3A3B73" stroke-linejoin="bevel" stroke-miterlimit="10" points="545.7,156.7 578,173.2 
			578,168.2 545.7,151.7 		"/>
		
			<rect x="578" y="168.2" fill="#FFFFFF" stroke="#3A3B73" stroke-linecap="round" stroke-linejoin="bevel" stroke-miterlimit="10" width="15.7" height="5"/>
	</g>
	<g>
		<path fill="#3A3B73" stroke="#3A3B73" stroke-linecap="round" stroke-linejoin="bevel" stroke-miterlimit="10" d="M348.7,113.5
			l13.4,6.9h3.7l-13.4-6.9C352.3,113.5,352.5,113.5,348.7,113.5z"/>
		<polygon fill="#FFFFFF" stroke="#3A3B73" stroke-linejoin="bevel" stroke-miterlimit="10" points="348.6,128.5 362,135.4 
			362,120.4 348.6,113.5 		"/>
		
			<rect x="362" y="120.4" fill="#FFFFFF" stroke="#3A3B73" stroke-linecap="round" stroke-linejoin="bevel" stroke-miterlimit="10" width="3.7" height="15"/>
	</g>
	<g>
		<path fill="#3A3B73" stroke="#3A3B73" stroke-linecap="round" stroke-linejoin="bevel" stroke-miterlimit="10" d="M103.1,85
			l64.5,33.1h5.7L108.8,85C108.8,85,106.9,85,103.1,85z"/>
		<polygon fill="#FFFFFF" stroke="#3A3B73" stroke-linejoin="bevel" stroke-miterlimit="10" points="103,180 167.5,213.1 
			167.5,118.1 103,85 		"/>
		
			<rect x="167.6" y="118.1" fill="#FFFFFF" stroke="#3A3B73" stroke-linecap="round" stroke-linejoin="bevel" stroke-miterlimit="10" width="5.7" height="95"/>
	</g>
	<g>
		<path fill="#3A3B73" stroke="#3A3B73" stroke-linecap="round" stroke-linejoin="bevel" stroke-miterlimit="10" d="M173.1,15
			l64.5,33.1h5.7L178.8,15C178.8,15,176.9,15,173.1,15z"/>
		<polygon fill="#FFFFFF" stroke="#3A3B73" stroke-linejoin="bevel" stroke-miterlimit="10" points="173,40 237.5,73.1 237.5,48.1 
			173,15 		"/>
		
			<rect x="237.6" y="48.1" fill="#FFFFFF" stroke="#3A3B73" stroke-linecap="round" stroke-linejoin="bevel" stroke-miterlimit="10" width="5.7" height="25"/>
	</g>
	<g>
		<path fill="#3A3B73" stroke="#3A3B73" stroke-linecap="round" stroke-linejoin="bevel" stroke-miterlimit="10" d="M123.1,25
			l64.5,33.1h45.7L168.8,25C168.8,25,126.9,25,123.1,25z"/>
		<polygon fill="#FFFFFF" stroke="#3A3B73" stroke-linejoin="bevel" stroke-miterlimit="10" points="123,40 187.5,73.1 187.5,58.1 
			123,25 		"/>
		
			<rect x="187.6" y="58.1" fill="#FFFFFF" stroke="#3A3B73" stroke-linecap="round" stroke-linejoin="bevel" stroke-miterlimit="10" width="45.7" height="15"/>
	</g>
	<path fill="#3A3B73" stroke="#3A3B73" stroke-linecap="round" stroke-linejoin="bevel" stroke-miterlimit="10" d="M566.1,14
		l16.4,8.6h295.7L861.8,14C861.8,14,569.9,14,566.1,14z"/>
	<polygon fill="#FFFFFF" stroke="#3A3B73" stroke-linejoin="bevel" stroke-miterlimit="10" points="566,50 582.4,58.6 582.4,22.6 
		566,14 	"/>
	
		<rect x="582.4" y="22.6" fill="none" stroke="#3A3B73" stroke-linecap="round" stroke-linejoin="bevel" stroke-miterlimit="10" width="295.7" height="36"/>
	<path fill="#3A3B73" stroke="#3A3B73" stroke-linecap="round" stroke-linejoin="bevel" stroke-miterlimit="10" d="M570.7,194.6
		l64.5,33.1h105.7l-64.5-33.1C676.3,194.6,574.5,194.6,570.7,194.6z"/>
	<polygon fill="#FFFFFF" stroke="#3A3B73" stroke-linejoin="bevel" stroke-miterlimit="10" points="570.6,236.6 635.1,269.7 
		635.1,227.7 570.6,194.6 	"/>
	
		<rect x="635.2" y="227.7" fill="#FFFFFF" stroke="#3A3B73" stroke-linejoin="bevel" stroke-miterlimit="10" width="105.7" height="42"/>
	<polygon fill="#FFFFFF" stroke="#3A3B73" stroke-linecap="round" stroke-linejoin="bevel" stroke-miterlimit="10" points="
		792.7,149.3 813.8,138.1 792.7,104.6 792.7,104.6 	"/>
	<polygon fill="#3A3B73" stroke="#3A3B73" stroke-linecap="round" stroke-linejoin="bevel" stroke-miterlimit="10" points="
		792.7,149.3 771.6,138.1 792.7,104.6 792.7,104.6 	"/>
	<g>
		<polygon fill="#FFFFFF" stroke="#3A3B73" stroke-linecap="round" stroke-linejoin="bevel" stroke-miterlimit="10" points="
			1148.3,290 1061.8,243.3 1061.8,223.3 1148.3,270 		"/>
		<polygon fill="#FFFFFF" stroke="#3A3B73" stroke-linecap="round" stroke-linejoin="bevel" stroke-miterlimit="10" points="
			1148.3,290 1184.9,290 1184.9,270 1148.3,270 		"/>
		<polygon fill="#3A3B73" stroke="#3A3B73" stroke-linejoin="bevel" stroke-miterlimit="10" points="1148.3,270 1184.9,270 
			1098.7,223.3 1061.8,223.3 		"/>
	</g>
	<g>
		<polygon fill="#FFFFFF" stroke="#3A3B73" stroke-linecap="round" stroke-linejoin="bevel" stroke-miterlimit="10" points="
			1086.3,290 999.8,243.3 999.8,223.3 1086.3,270 		"/>
		<polygon fill="#FFFFFF" stroke="#3A3B73" stroke-linecap="round" stroke-linejoin="bevel" stroke-miterlimit="10" points="
			1086.3,290 1122.9,290 1122.9,270 1086.3,270 		"/>
		<polygon fill="#3A3B73" stroke="#3A3B73" stroke-linejoin="bevel" stroke-miterlimit="10" points="1086.3,270 1122.9,270 
			1036.7,223.3 999.8,223.3 		"/>
	</g>
	<g>
		<polygon fill="#FFFFFF" stroke="#3A3B73" stroke-linecap="round" stroke-linejoin="bevel" stroke-miterlimit="10" points="
			1024.3,290 937.8,243.3 937.8,223.3 1024.3,270 		"/>
		<polygon fill="#FFFFFF" stroke="#3A3B73" stroke-linecap="round" stroke-linejoin="bevel" stroke-miterlimit="10" points="
			1024.3,290 1060.9,290 1060.9,270 1024.3,270 		"/>
		<polygon fill="#3A3B73" stroke="#3A3B73" stroke-linejoin="bevel" stroke-miterlimit="10" points="1024.3,270 1060.9,270 
			974.7,223.3 937.8,223.3 		"/>
	</g>
	<polygon fill="#3A3B73" stroke="#3A3B73" stroke-linecap="round" stroke-linejoin="bevel" stroke-miterlimit="10" points="
		1007.2,159.8 948.8,128.7 1007.2,35.8 1007.2,35.8 	"/>
	<polygon fill="#FFFFFF" stroke="#3A3B73" stroke-linecap="round" stroke-linejoin="bevel" stroke-miterlimit="10" points="
		1007.2,159.8 1065.7,128.7 1007.2,35.8 1007.2,35.8 	"/>
	<path fill="#3A3B73" stroke="#3A3B73" stroke-miterlimit="10" d="M288.7,83.9c-17,0-35.8,16-35.8,35.6s18.8,35.6,35.8,35.6V177
		c-29,0-57.6-25.7-57.6-57.4s25.6-57.4,57.6-57.4V83.9z"/>
	<path fill="#FFFFFF" stroke="#3A3B73" stroke-miterlimit="10" d="M288.7,105.2c-17,0-35.8,16-35.8,35.6s18.8,35.6,35.8,35.6v21.8
		c-29,0-57.6-25.7-57.6-57.4s25.6-57.4,57.6-57.4V105.2z"/>
	<path fill="#3A3B73" stroke="#3A3B73" stroke-miterlimit="10" d="M732.7,227c0-17.7,16.2-36.4,36.3-36.4s36.3,18.8,36.3,36.4h22.2
		c0-30.7-26.2-58.6-58.4-58.6c-32.3,0-58.4,25.6-58.4,58.6H732.7z"/>
	<path fill="#FFFFFF" stroke="#3A3B73" stroke-miterlimit="10" d="M741.1,227c0-17.7,16.2-36.4,36.3-36.4c20,0,36.3,18.8,36.3,36.4
		h22.2c0-30.7-26.2-58.6-58.4-58.6c-32.3,0-58.4,25.6-58.4,58.6H741.1z"/>
	<path fill="#3A3B73" d="M566.9,29.4c-1.1,6.8,0.6,15.3,3.9,18.9c3.3,3.6,6.9,0.9,8.1-5.9c1.1-6.8-0.6-15.3-3.9-18.9
		C571.6,19.9,568,22.5,566.9,29.4z"/>
	<path fill="#FFFFFF" stroke="#3A3B73" stroke-miterlimit="10" d="M569.5,32.2c-0.7,3.9,0.4,8.7,2.2,10.7c1.9,2,4,0.5,4.6-3.4
		s-0.4-8.7-2.2-10.7C572.2,26.7,570.1,28.3,569.5,32.2z"/>
	<path fill="#FFFFFF" stroke="#3A3B73" stroke-miterlimit="10" d="M566.3,32.2c-0.7,3.9,0.4,8.7,2.2,10.7c1.9,2,4,0.5,4.6-3.4
		c0.7-3.9-0.4-8.7-2.2-10.7C569.1,26.7,567,28.3,566.3,32.2z"/>
	<path fill="#FFFFFF" stroke="#3A3B73" stroke-miterlimit="10" d="M563.2,32.2c-0.7,3.9,0.4,8.7,2.2,10.7c1.9,2,4,0.5,4.6-3.4
		s-0.4-8.7-2.2-10.7C565.9,26.7,563.9,28.3,563.2,32.2z"/>
	<path fill="#FFFFFF" stroke="#3A3B73" stroke-miterlimit="10" d="M560.1,32.2c-0.7,3.9,0.4,8.7,2.2,10.7c1.9,2,4,0.5,4.6-3.4
		c0.7-3.9-0.4-8.7-2.2-10.7C562.8,26.7,560.7,28.3,560.1,32.2z"/>
	<path fill="#FFFFFF" stroke="#3A3B73" stroke-miterlimit="10" d="M557,32.2c-0.7,3.9,0.4,8.7,2.2,10.7c1.9,2,4,0.5,4.6-3.4
		s-0.4-8.7-2.2-10.7C559.7,26.7,557.6,28.3,557,32.2z"/>
	<path fill="#FFFFFF" stroke="#3A3B73" stroke-miterlimit="10" d="M553.8,32.2c-0.7,3.9,0.4,8.7,2.2,10.7c1.9,2,4,0.5,4.6-3.4
		c0.7-3.9-0.4-8.7-2.2-10.7C556.6,26.7,554.5,28.3,553.8,32.2z"/>
	<path fill="#FFFFFF" stroke="#3A3B73" stroke-miterlimit="10" d="M550.7,32.2c-0.7,3.9,0.4,8.7,2.2,10.7c1.9,2,4,0.5,4.6-3.4
		c0.7-3.9-0.4-8.7-2.2-10.7C553.4,26.7,551.4,28.3,550.7,32.2z"/>
	<path fill="#FFFFFF" stroke="#3A3B73" stroke-miterlimit="10" d="M547.6,32.2c-0.7,3.9,0.4,8.7,2.2,10.7c1.9,2,4,0.5,4.6-3.4
		s-0.4-8.7-2.2-10.7S548.2,28.3,547.6,32.2z"/>
	<path fill="#3A3B73" stroke="#3A3B73" stroke-miterlimit="10" d="M545.9,33.7c-0.4,2.3,0.2,5.1,1.3,6.3c1.1,1.2,2.3,0.3,2.7-2
		c0.4-2.3-0.2-5.1-1.3-6.3C547.5,30.5,546.2,31.4,545.9,33.7z"/>
	<path fill="#3A3B73" d="M877.1,217.7c-1.5,8.9,0.8,19.8,5.1,24.5c4.3,4.6,9,1.2,10.5-7.7c1.5-8.9-0.8-19.8-5.1-24.5
		C883.3,205.4,878.6,208.8,877.1,217.7z"/>
	<path fill="#FFFFFF" stroke="#3A3B73" stroke-miterlimit="10" d="M880.5,221.3c-0.8,5.1,0.5,11.3,2.9,13.9c2.5,2.6,5.1,0.7,6-4.4
		c0.8-5.1-0.5-11.3-2.9-13.9C884,214.3,881.3,216.3,880.5,221.3z"/>
	<path fill="#FFFFFF" stroke="#3A3B73" stroke-miterlimit="10" d="M876.4,221.3c-0.8,5.1,0.5,11.3,2.9,13.9c2.5,2.6,5.1,0.7,6-4.4
		c0.8-5.1-0.5-11.3-2.9-13.9C879.9,214.3,877.3,216.3,876.4,221.3z"/>
	<path fill="#FFFFFF" stroke="#3A3B73" stroke-miterlimit="10" d="M872.4,221.3c-0.8,5.1,0.5,11.3,2.9,13.9c2.5,2.6,5.1,0.7,6-4.4
		c0.8-5.1-0.5-11.3-2.9-13.9C875.9,214.3,873.2,216.3,872.4,221.3z"/>
	<path fill="#FFFFFF" stroke="#3A3B73" stroke-miterlimit="10" d="M868.3,221.3c-0.8,5.1,0.5,11.3,2.9,13.9c2.5,2.6,5.1,0.7,6-4.4
		c0.8-5.1-0.5-11.3-2.9-13.9C871.8,214.3,869.2,216.3,868.3,221.3z"/>
	<path fill="#FFFFFF" stroke="#3A3B73" stroke-miterlimit="10" d="M864.3,221.3c-0.8,5.1,0.5,11.3,2.9,13.9c2.5,2.6,5.1,0.7,6-4.4
		c0.8-5.1-0.5-11.3-2.9-13.9C867.8,214.3,865.1,216.3,864.3,221.3z"/>
	<path fill="#FFFFFF" stroke="#3A3B73" stroke-miterlimit="10" d="M860.2,221.3c-0.8,5.1,0.5,11.3,2.9,13.9c2.5,2.6,5.1,0.7,6-4.4
		c0.8-5.1-0.5-11.3-2.9-13.9C863.7,214.3,861.1,216.3,860.2,221.3z"/>
	<path fill="#FFFFFF" stroke="#3A3B73" stroke-miterlimit="10" d="M856.2,221.3c-0.8,5.1,0.5,11.3,2.9,13.9c2.5,2.6,5.1,0.7,6-4.4
		c0.8-5.1-0.5-11.3-2.9-13.9C859.7,214.3,857,216.3,856.2,221.3z"/>
	<path fill="#FFFFFF" stroke="#3A3B73" stroke-miterlimit="10" d="M852.1,221.3c-0.8,5.1,0.5,11.3,2.9,13.9c2.5,2.6,5.1,0.7,6-4.4
		c0.8-5.1-0.5-11.3-2.9-13.9C855.6,214.3,853,216.3,852.1,221.3z"/>
	<path fill="#3A3B73" stroke="#3A3B73" stroke-miterlimit="10" d="M849.9,223.3c-0.5,3,0.3,6.7,1.7,8.2c1.4,1.6,3,0.4,3.5-2.6
		c0.5-3-0.3-6.7-1.7-8.2S850.4,220.3,849.9,223.3z"/>
	<path fill="#3A3B73" stroke="#3A3B73" stroke-linecap="round" stroke-linejoin="bevel" stroke-miterlimit="10" d="M116.4,129.9
		c-3.8,17.3-0.4,39,7.6,48.5c3.5,4.2,10.1,6.9,13.6,5.4c4.5-1.9,5.7-9.8,7.8-19.5c3.8-17.3,3.6-38.9-4.4-48.4
		C133,106.4,120.2,112.6,116.4,129.9z"/>
	<path fill="#FFFFFF" stroke="#3A3B73" stroke-linejoin="bevel" stroke-miterlimit="10" d="M120.4,130.9c-3.8,17.3-0.4,39,7.6,48.5
		s17.6,3.2,21.4-14.1s0.4-39-7.6-48.5C133.8,107.3,124.2,113.6,120.4,130.9z"/>
	<polygon fill="#3A3B73" stroke="#3A3B73" stroke-linecap="round" stroke-linejoin="bevel" stroke-miterlimit="10" points="
		1057.2,143.8 1028,128.2 1057.2,81.8 1057.2,81.8 	"/>
	<polygon fill="#FFFFFF" stroke="#3A3B73" stroke-linecap="round" stroke-linejoin="bevel" stroke-miterlimit="10" points="
		1057.2,143.8 1086.5,128.2 1057.2,81.8 1057.2,81.8 	"/>
	<g>
		<circle fill="#3A3B73" stroke="#3A3B73" stroke-miterlimit="10" cx="217.8" cy="147.1" r="4.8"/>
		<circle fill="#3A3B73" stroke="#3A3B73" stroke-miterlimit="10" cx="183.4" cy="147.1" r="4.8"/>
		<circle fill="#3A3B73" stroke="#3A3B73" stroke-miterlimit="10" cx="140" cy="147.1" r="4.8"/>
		<circle fill="#3A3B73" stroke="#3A3B73" stroke-miterlimit="10" cx="200.6" cy="147.1" r="4.8"/>
		<circle fill="#3A3B73" stroke="#3A3B73" stroke-miterlimit="10" cx="122.8" cy="147.1" r="4.8"/>
		<circle fill="#3A3B73" stroke="#3A3B73" stroke-miterlimit="10" cx="105.7" cy="147.1" r="4.8"/>
		<circle fill="#3A3B73" stroke="#3A3B73" stroke-miterlimit="10" cx="71.3" cy="147.1" r="4.8"/>
		<circle fill="#3A3B73" stroke="#3A3B73" stroke-miterlimit="10" cx="88.5" cy="147.1" r="4.8"/>
		<circle fill="#3A3B73" stroke="#3A3B73" stroke-miterlimit="10" cx="54.1" cy="147.1" r="4.8"/>
	</g>
</g>
</svg>
