<?xml version="1.0" encoding="utf-8"?>
<!-- Generator: Adobe Illustrator 18.0.0, SVG Export Plug-In . SVG Version: 6.00 Build 0)  -->
<!DOCTYPE svg PUBLIC "-//W3C//DTD SVG 1.1//EN" "http://www.w3.org/Graphics/SVG/1.1/DTD/svg11.dtd">
<svg version="1.1" id="Layer_1" xmlns="http://www.w3.org/2000/svg" xmlns:xlink="http://www.w3.org/1999/xlink" x="0px" y="0px"
	 viewBox="0 0 262 84.6" enable-background="new 0 0 262 84.6" xml:space="preserve">
<g>
	<rect x="102" fill="#3a3b73" width="7" height="37"/>
	<rect x="153" fill="#3a3b73" width="7" height="37"/>
	<path fill="#3a3b73" d="M92,22V0H68v37h7V22.4l13.1,15.5l5.1-4.5L83.4,22H92z M75,7h10v8H75V7z"/>
	<polygon fill="#3a3b73" points="0,37 7,37 7,7 17,7 17,15 10,15 10,22 24,22 24,0 0,0 	"/>
	<polygon fill="#3a3b73" points="143,21.9 126,11 126,7 136,7 136,11 143,11 143,0 119,0 119,14.8 136,25.6 136,30 126,30 126,25 
		119,25 119,37 143,37 	"/>
	<polygon fill="#3a3b73" points="34,37 41,37 41,7 51,7 51,15 44,15 44,22 51,22 51,37 58,37 58,0 34,0 	"/>
	<polygon fill="#3a3b73" points="170,37 177,37 177,7 187,7 187,15 180,15 180,22 187,22 187,37 194,37 194,0 170,0 	"/>
	<polygon fill="#3a3b73" points="221,30 219.8,30 211.2,0 210.6,0 204,0 204,6.8 204,37 211,37 211,22.6 214.7,37 220.8,37 228,37 
		228,29.7 228,0 221,0 	"/>
	<polygon fill="#3a3b73" points="204,83 211,83 211,54 221,54 221,62 214,62 214,69 228,69 228,47 204,47 	"/>
	<polygon fill="#3a3b73" points="0,61.5 17,72.3 17,76 7,76 7,72 0,72 0,83 24,83 24,68.6 7,57.8 7,54 17,54 17,58 24,58 24,47 
		0,47 	"/>
	<polygon fill="#3a3b73" points="262,58 262,47 238,47 238,61.5 255,72.3 255,76 245,76 245,72 238,72 238,83 262,83 262,68.6 
		245,57.8 245,54 255,54 255,58 	"/>
	<polygon fill="#3a3b73" points="187,76 177,76 177,47 170,47 170,83 194,83 194,47 187,47 	"/>
	<path fill="#3a3b73" d="M126,69V47h-24v36h7V69.1l13.1,15.5l5.1-4.3L117.4,69H126z M109,54h10v8h-10V54z"/>
	<polygon fill="#3a3b73" points="68,83 75,83 75,54 85,54 85,62 78,62 78,69 85,69 85,83 92,83 92,47 68,47 	"/>
	<polygon fill="#3a3b73" points="42.5,47 34,47 34,54 42,54 42,83 49,83 49,54 58,54 58,47 49.3,47 	"/>
	<polygon fill="#3a3b73" points="144.4,47 136,47 136,54 144,54 144,83 151,83 151,54 160,54 160,47 151.2,47 	"/>
</g>
</svg>