<?xml version="1.0" encoding="utf-8"?>
<!-- Generator: Adobe Illustrator 18.0.0, SVG Export Plug-In . SVG Version: 6.00 Build 0)  -->
<!DOCTYPE svg PUBLIC "-//W3C//DTD SVG 1.1//EN" "http://www.w3.org/Graphics/SVG/1.1/DTD/svg11.dtd">
<svg version="1.1" id="Layer_1" xmlns="http://www.w3.org/2000/svg" xmlns:xlink="http://www.w3.org/1999/xlink" x="0px" y="0px"
	 viewBox="0 0 13.5 11.2" enable-background="new 0 0 13.5 11.2" xml:space="preserve">
<path fill="#3A3B73" d="M13.4,0.3c-0.5,0.3-1.1,0.5-1.8,0.7C11.1,0.3,10.3,0,9.6,0C7.7,0,6.4,1.7,6.8,3.5C4.5,3.4,2.4,2.2,1,0.5
	c-1.9,2.6-0.7,7.7,3.2,8.2C3,9.7,1.5,10.1,0,9.9c1.3,0.8,2.8,1.3,4.3,1.3c5.3,0,8.2-4.5,8-8.4C12.9,2.4,13.7,1.4,13.4,0.3L13.4,0.3z
	"/>
</svg>
